<?xml version="1.0" encoding="UTF-8"?>
<svg id="Layer_1" data-name="Layer 1" xmlns="http://www.w3.org/2000/svg" version="1.1" viewBox="0 0 1089 699">
  <defs>
    <style>
      .cls-1 {
        fill: none;
        stroke: #222;
        stroke-linecap: round;
        stroke-linejoin: round;
      }
    </style>
  </defs>
  <path id="MXGRO" class="cls-1" d="M4.717,262.596v-.906l.906-.906,1.812-3.623.906-2.717.906-2.717-.906-3.623-1.812-3.623-2.717-4.529-1.812-4.529v-16.304l.906-8.152,1.812-7.246.906-2.717v-2.717l1.812-1.812,1.812-2.717,2.717-2.717,1.812-.906,2.717-.906h9.963l3.623-.906,4.529-.906,4.529-.906h3.623l3.623.906,3.623-.906,3.623-2.717h5.434l1.812.906h2.717l2.717-.906,1.812-1.812v-1.812l.906-2.717,4.529-5.435,4.529-6.34,2.717-5.435v-7.246l-2.717-19.021-1.812-19.021,3.623-17.209,10.869-14.492,9.058-3.623h10.869l11.775.906h9.963l4.529.906,3.623.906,4.529.906,2.717,3.623,2.717,4.529,1.812,3.623,1.812,3.623,4.529,3.623,5.434,2.717,4.529,2.717,6.34,1.812,5.434.906,14.492-2.717,13.586-3.623,13.586-3.623,13.586-3.623,6.34-3.623,41.665,2.717,12.681-2.717h6.34l5.434,2.717.906,1.812v3.623l.906,2.717.906-.906,1.812-.906h3.623l1.812.906.906,3.623,1.812,6.34,8.152-2.717,2.717-2.717-3.623-3.623h28.078l2.717,1.812,9.058,9.963,3.623,2.717,4.529,2.717,3.623.906v-.906l1.812-3.623v-.906l.906.906,2.717.906h.906l.906,1.812.906,2.717.906,3.623-.906,2.717-1.812,2.717-2.717,1.812-1.812,3.623v4.529l2.717,3.623,5.434,5.435,9.058-8.152h.906l2.717.906,1.812,4.529,3.623-5.435,3.623-6.34.906-5.435-1.812-4.529-6.34-5.435-7.246-5.435-6.34-5.435-7.246-4.529-4.529-4.529-2.717-4.529-.906-5.435v-7.246l-.906-6.34-.906-6.34-1.812-5.435-2.717-6.34-.906-6.34,2.717-3.623,2.717-4.529,1.812-5.435-2.717-4.529-4.529-4.529-4.529-4.529v-5.435l3.623-3.623,2.717-4.529,3.623-4.529,4.529-2.717,5.434.906,3.623,4.529,2.717,6.34.906,6.34,2.717-2.717,2.717-2.717,2.717-2.717v-2.717l.906-2.717,1.812-2.717,2.717-2.717,2.717-2.717,9.963,3.623,9.058,2.717,9.963.906h10.869l3.623.906,1.812.906.906,2.717v4.529l.906,2.717,1.812,1.812,1.812,2.717v2.717l-2.717,6.34-2.717,4.529v5.435l2.717,5.435,1.812,3.623v6.34l-.906,3.623.906,2.717,1.812,2.717,1.812,2.717,2.717,2.717,4.529,4.529,4.529,4.529,3.623,5.435,1.812,6.34v7.246l-2.717,7.246-1.812,6.34,2.717,5.435,2.717,1.812,1.812,2.717,1.812,2.717,1.812,1.812,2.717,2.717,3.623.906h3.623l3.623-.906,2.717-1.812,1.812-2.717,1.812-2.717,3.623-.906,5.434-4.529,5.434-4.529,6.34-4.529,5.434-5.435,6.34-6.34,3.623-6.34,4.529-7.246,3.623-8.152v-.906l.906-.906.906-1.812,5.434-.906,5.434-.906,4.529-1.812,5.434-.906,5.434-2.717,5.434-1.812,5.434-.906,5.434-1.812.906-.906h1.812l.906-.906h1.812l5.434-.906,4.529-.906,3.623.906,4.529,3.623,2.717,3.623,2.717,2.717,2.717.906,4.529-4.529,2.717-2.717.906-2.717v-6.34l1.812-2.717,1.812-2.717,2.717-.906,2.717-2.717,1.812-1.812,2.717-2.717,2.717-1.812,1.812-1.812,6.34-5.435,5.434,1.812,4.529,5.435,4.529,5.435,3.623.906,1.812,1.812.906,2.717,1.812,2.717,3.623,2.717,6.34,1.812h6.34l3.623-.906-1.812,4.529-1.812,5.435.906,3.623,5.434,1.812,4.529.906,1.812,4.529.906,4.529,5.434,1.812,1.812,2.717,1.812,3.623,1.812,3.623,1.812,2.717,2.717,3.623,2.717,2.717,2.717,1.812h9.058l.906,4.529.906,5.435,1.812,2.717h21.737l1.812-2.717v-3.623l.906-3.623v-3.623l1.812-6.34,3.623-5.435,4.529-3.623,7.246.906,1.812.906,1.812.906,1.812,1.812v2.717l.906,3.623v2.717l.906,3.623,1.812,2.717,1.812,1.812,1.812,1.812.906,1.812.906,2.717,2.717,7.246,6.34,6.34,5.434,6.34,1.812,9.058.906,4.529v12.681l1.812,3.623.906,2.717,1.812,3.623v3.623h1.812l1.812-.906h1.812l1.812-.906v7.246l1.812,3.623,2.717,2.717,4.529,2.717,3.623-1.812,2.717-2.717,3.623,1.812v5.435l.906,5.435,1.812,4.529,3.623,1.812,4.529.906,6.34.906,6.34.906,2.717,1.812,3.623,12.681,6.34,9.963,9.963,6.34,11.775,5.435,5.434.906,5.434,1.812,5.434.906,5.434.906,1.812.906,2.717,1.812,2.717.906h1.812l8.152,1.812,9.058.906,9.058-.906,8.152-1.812,4.529-.906h2.717l2.717.906,3.623,2.717,3.623,3.623,3.623,4.529,3.623,3.623,3.623,3.623,4.529,5.435.906,4.529-1.812,4.529-2.717,6.34-1.812,4.529-1.812,5.435-.906,5.435-.906,4.529-.906,3.623-.906,3.623-.906,3.623-.906,3.623-1.812,7.246-.906,6.34.906,6.34,3.623,5.435,1.812.906.906,1.812v.906l-1.812,1.812-2.717,2.717v7.246l.906,3.623.906.906.906.906.906.906.906.906.906.906h.906v.906l1.812,1.812,1.812,1.812,1.812,2.717,1.812,1.812.906,3.623-.906,3.623-.906,4.529-.906,2.717.906.906v.906l.906.906,2.717,5.434-.906,4.529-1.812,5.434-.906,6.34,1.812,4.529,2.717,3.623,5.434.906,5.434,1.812,3.623,6.34,3.623,7.246,3.623,6.34,6.34.906h10.87l3.623.906.906.906.906.906.906,1.812.906.906,8.152,9.963,8.152,9.963,8.152,10.869,7.246,10.869,1.812,2.717.906,2.717v6.34l-.906,2.717-.906,2.717-.906,2.717-1.812,2.717-1.812,3.623-1.812,3.623-2.717,3.623-2.717,3.623-.906,2.717v8.151l-.906,5.434-.906,4.529-.906,5.434v4.529l-.906,4.529-1.812,3.623-2.717,2.717-3.623,2.717v.906l-.906.906v.906l-.906.906-1.812,1.812-.906.906-1.812.906h-1.812l-3.623,2.717-2.717.906-3.623.906-4.529-.906-2.717-.906h-3.623l-3.623.906-2.717.906,1.812,8.152,1.812,7.246,1.812,7.246-2.717,8.152v.906l-.906.906v.906h-.906l-5.434,1.812h-3.623l-4.529-.906h-4.529l-7.246,2.717-3.623,5.434.906,5.434,3.623,6.34,3.623,9.963-1.812,8.152-5.434,7.246-6.34,6.34-6.34,3.623-6.34.906h-7.246l-7.246.906-7.246,1.812-4.529,1.812-4.529,3.623-4.529,4.529v.906l-3.623-1.812h-.906l.906-.906.906-.906-.906-2.717-3.623-5.434-9.963-8.152-20.832-19.021-9.058-13.586-8.152-8.152-.906-1.812-1.812-1.812-3.623.906-4.529-1.812-1.812,1.812h-1.812l-2.717.906-3.623.906-1.812,1.812-.906,1.812v.906l-9.058-1.812h-4.529l-9.963-3.623-51.628-16.304-41.665-11.775-18.115-4.529-30.796-4.529h-16.304l-12.681.906-8.152-1.812-7.246-2.717-6.34-1.812-7.246-3.623-6.34-2.717-14.492-11.775-6.34-4.529h-1.812l-.906,1.812-3.623-.906-.906-1.812-2.717-.906,2.717-.906,2.717.906.906-1.812-1.812-1.812h-.906l-1.812.906-2.717-.906h-1.812l-1.812-1.812h1.812v-2.717l1.812-2.717.906.906,1.812-.906v-1.812l-1.812-2.717-1.812-.906-3.623-.906-4.529,1.812-2.717,1.812.906,1.812,1.812-.906,1.812,1.812-2.717,1.812-3.623.906-.906-1.812-1.812-6.34-1.812-.906-6.34-6.34-.906-2.717-8.152-4.529-19.021-7.246-12.681-3.623-13.586-4.529-18.115-6.34-21.738-9.058-63.403-22.644-23.549-7.246-15.398-5.434-17.21-7.246-14.492-5.434-17.21-4.529-14.492-5.434-13.586-4.529-9.058-4.529-3.623.906-1.812-2.717,2.717-1.812v-5.434l-4.529-5.434-9.058-7.246-17.21-10.869-2.717-6.34-20.832-11.775-21.738-8.152-11.775-5.434-16.304-5.434-.906-3.623h3.623l.906-5.435-1.812-3.623-2.717-3.623-9.963-8.152-7.246-.906-7.246,1.812-.906-3.623h-3.623l-2.717-2.717h-3.623l-.906-5.435-4.529-1.812-7.246-1.812-.906-9.963-6.34-9.963-7.246-4.529-11.775-9.058-3.623-7.246-3.623-3.623v-4.529l-9.963-11.775-11.775-5.435-3.623-1.812-16.304-9.058-15.398-7.246-11.775-3.623-16.304,1.812-2.717,4.529-5.435,4.529-3.623,4.529-4.529,1.812-1.812,1.812v.003Z"/>
</svg>