<?xml version="1.0" encoding="utf-8"?>
<!-- Generator: Adobe Illustrator 21.0.0, SVG Export Plug-In . SVG Version: 6.00 Build 0)  -->
<!DOCTYPE svg PUBLIC "-//W3C//DTD SVG 1.1//EN" "http://www.w3.org/Graphics/SVG/1.1/DTD/svg11.dtd">
<svg version="1.1" id="XMLID_2_" xmlns="http://www.w3.org/2000/svg" xmlns:xlink="http://www.w3.org/1999/xlink" x="0px" y="0px"
	 viewBox="0 0 143.8459 170.6973" enable-background="new 0 0 143.8459 170.6973" xml:space="preserve">
<g id="combo-pitcher">
	<g>
		<g>
			<path d="M97.5317,170.6973H29.1499c-1.8881,0-3.4248-1.5368-3.4248-3.4249v-16.1185
				C25.2672,138.8078,13.1812,18.1898,10.8497,13.5267c-1.5685-3.1369-4.2255-3.2847-6.5705-3.4144
				C2.3729,10.0067,0,9.8752,0,7.2259c0-1.0021,0.4713-1.9264,1.4005-2.7472c4.6266-4.0844,20.7212-5.1632,29.3372-4.0892
				c5.2525,0.6566,10.8612,3.9778,16.799,7.4948c6.079,3.6006,12.3663,7.324,18.3781,8.1361
				c9.6132,1.2987,37.3465,1.7643,48.8238,1.9044c1.174,0.0144,2.2683,0.5461,3.0016,1.4581
				c0.743,0.9225,1.031,2.1214,0.7901,3.2896c-0.5462,2.6493-1.2556,6.7979-2.108,12.3307
				c-0.0826,0.5366-0.5817,0.9032-1.1211,0.8216c-0.5366-0.0826-0.9042-0.5845-0.8216-1.1211
				c0.8571-5.5654,1.5723-9.7467,2.1252-12.4286c0.1219-0.5913-0.0221-1.196-0.3955-1.6597
				c-0.3705-0.4598-0.9004-0.717-1.4945-0.7247c-11.5129-0.1402-39.3421-0.6086-49.0629-1.9217
				c-6.4082-0.8659-12.8683-4.6929-19.1172-8.3933c-5.7565-3.4095-11.1943-6.63-16.0408-7.2356
				C21.3432,1.1968,6.4227,2.6683,2.7011,5.9531C2.2068,6.3898,1.9659,6.8065,1.9659,7.2259c0,0.6125,0.1037,0.7948,2.4227,0.9235
				c2.4449,0.1353,6.1405,0.3407,8.2196,4.498c2.8019,5.6039,14.7757,130.1929,15.0818,138.47l0.001,16.155
				c0,0.8043,0.6546,1.4591,1.459,1.4591h68.3817c0.8043,0,1.4591-0.6547,1.4591-1.4591l0.3263-16.1387
				c0.0067-0.0969,0.5865-4.9386,1.5445-12.7694c0.0653-0.5384,0.5519-0.931,1.0943-0.8562
				c0.5394,0.0653,0.9224,0.5558,0.8561,1.0943c-0.956,7.8279-1.5358,12.6677-1.5358,12.6687l-0.3196,16.0215
				C100.9566,169.1605,99.4198,170.6973,97.5317,170.6973z"/>
		</g>
		<g>
			<path d="M104.223,120.11c-0.0403,0-0.0806-0.0019-0.1219-0.0077c-0.5395-0.0671-0.9215-0.5577-0.8544-1.0962
				c2.562-20.5935,6.2508-49.6254,9.2755-70.9868c0.0768-0.5376,0.5739-0.912,1.1115-0.8351
				c0.5376,0.0758,0.911,0.5739,0.8351,1.1115c-3.0236,21.347-6.7105,50.3674-9.2716,70.9523
				C105.1359,119.7462,104.7117,120.11,104.223,120.11z"/>
		</g>
		<g>
			<path d="M62.8527,158.1572c-0.0067,0-0.0125,0-0.0192,0c-6.6118-0.2649-26.7445-2.1011-29.6549-5.3753
				c-1.2921-1.4542-4.1774-26.3336-8.7763-67.1376c-3.6342-32.2437-7.753-68.7896-9.1785-70.9868
				c-0.6018-0.9293-2.6819-1.0991-3.4854-1.079c-0.0029,0-0.0058,0-0.0096,0c-0.2668,0-0.4857-0.2131-0.4915-0.4818
				c-0.0048-0.2707,0.2102-0.4953,0.4809-0.5011c0.334-0.0048,3.3251-0.024,4.331,1.5262
				c1.4427,2.2251,4.6306,29.7202,9.3291,71.4121c3.4269,30.4026,7.3105,64.8608,8.543,66.6049
				c2.3441,2.6368,20.0944,4.6824,28.9504,5.0355c0.2716,0.0116,0.4828,0.24,0.4722,0.5107
				C63.3336,157.9499,63.1157,158.1572,62.8527,158.1572z"/>
		</g>
		<g>
			<path d="M62.8527,158.1572c-0.263,0-0.4808-0.2073-0.4915-0.4722c-0.0105-0.2707,0.2006-0.4991,0.4723-0.5107
				c9.5624-0.382,28.6067-2.4515,30.9113-5.0452c0.3043-0.4204,1.0521-3.5122,2.8529-15.819
				c0.0393-0.2697,0.2918-0.4521,0.5577-0.4157c0.2687,0.0394,0.455,0.289,0.4156,0.5577
				c-1.9793,13.5239-2.656,15.8411-3.0918,16.3307c-2.8547,3.2127-24.4763,5.0893-31.6073,5.3744
				C62.8651,158.1572,62.8594,158.1572,62.8527,158.1572z"/>
		</g>
		<g>
			<path d="M99.5628,119.1146c-0.0221,0-0.0441-0.0009-0.0672-0.0047c-0.2687-0.0365-0.4569-0.2832-0.4204-0.5529
				c0.9205-6.8095,1.9034-14.2275,2.9133-21.8443c2.2461-16.9536,4.57-34.4851,6.6626-48.7883
				c0.0393-0.2697,0.2918-0.4483,0.5577-0.4157c0.2687,0.0394,0.455,0.289,0.4156,0.5577
				c-2.0926,14.2976-4.4155,31.8252-6.6616,48.775c-1.0099,7.6177-1.9928,15.0366-2.9143,21.848
				C100.0158,118.9361,99.8047,119.1146,99.5628,119.1146z"/>
		</g>
		<g>
			<path d="M111.8456,31.2395c-0.0288,0-0.0566-0.002-0.0854-0.0077c-0.2669-0.0461-0.4463-0.3005-0.3994-0.5683
				c1.7211-9.883,2.5082-11.6799,3.0515-12.133c0.2083-0.1738,0.5183-0.1469,0.6921,0.0624
				c0.1738,0.2083,0.1459,0.5173-0.0614,0.6921c-0.2515,0.2265-1.0174,1.8065-2.7146,11.5474
				C112.2871,31.0715,112.0798,31.2395,111.8456,31.2395z"/>
		</g>
		<g>
			<path d="M99.4917,140.5682c-3.5843,0-3.8175-6.1337-3.972-10.1931c-0.0307-0.7919-0.0566-1.4764-0.1046-1.9073
				c-0.3398-3.0592,1.0683-8.2205,3.4613-10.5493c0.8793-0.8552,1.7998-1.2891,2.7377-1.2891c1.7941,0,3.1081,1.5272,4.2667,2.8749
				c0.6374,0.742,1.3602,1.5829,1.8526,1.7231c0.0163,0.0019,0.0538,0.0028,0.0979,0.0028c3.4249,0,20.7931-7.011,22.663-9.1478
				c0.6451-1.1086,1.3102-11.1462,1.1682-30.465c-0.1267-17.1686-0.7967-29.317-1.3448-30.727
				c-0.0605-0.1585-1.5482-3.8684-5.5242-3.8684c-0.5692,0-1.1701,0.0787-1.7873,0.2323c-0.7766,0.1949-1.4667,0.3734-2.0984,0.5357
				c-2.8096,0.7256-4.5057,1.1634-7.347,1.3486c-0.8457,0.0548-1.7719,0.0874-2.8307,0.0989h-0.001
				c-2.5907,0-4.3195-1.4542-4.9453-4.0939c-1.2296-5.1767,2.081-14.789,3.8433-15.676c0.3235-0.1632,0.6652-0.2457,1.0147-0.2457
				c1.77,0,3.0668,2.0811,4.0143,3.5997c0.2073,0.333,0.4847,0.7784,0.6182,0.9349c0.8917,0.4397,3.0793,0.2467,5.4531-0.0624
				c1.6261-0.2121,3.3069-0.4309,4.9656-0.4309c2.0887,0,3.7416,0.3648,5.0518,1.1135c6.2748,3.5851,9.7372,8.6179,10.5828,15.3851
				c0.9944,7.9575,3.2829,61.6922,2.2615,66.1192c-1.0098,4.3781-5.7209,10.0337-11.1242,11.4745
				c-6.1337,1.6357-24.6395,7.492-30.0053,11.8873C101.3712,140.1343,100.4007,140.5682,99.4917,140.5682z M101.6141,118.5953
				c-0.4079,0-0.8667,0.2457-1.3669,0.7324c-1.7298,1.6828-3.182,6.1866-2.8778,8.9232c0.0557,0.501,0.0826,1.219,0.1142,2.0493
				c0.0864,2.2712,0.3168,8.3021,2.0081,8.3021c0.2419,0,0.7871-0.1142,1.7221-0.8802
				c6.0511-4.9578,26.1052-11.0292,30.7443-12.2655c4.6497-1.2402,8.8522-6.2748,9.7151-10.0174
				c0.8899-3.8521-1.22-56.8198-2.2961-65.4338c-0.764-6.1107-3.9067-10.6654-9.6075-13.9223
				c-1.0059-0.5749-2.3393-0.8543-4.0766-0.8543c-1.531,0-3.1485,0.2111-4.7122,0.4146c-1.4293,0.1853-2.7798,0.3609-3.9615,0.3609
				c-1.1999,0-2.081-0.1805-2.773-0.5682c-0.408-0.2294-0.6969-0.6729-1.2584-1.5743c-0.4991-0.8005-1.6673-2.6743-2.346-2.6743
				c-0.0259,0-0.0672,0.0038-0.1305,0.0356c-0.9235,0.8168-4.1986,9.8792-2.6176,14.1248c0.4895,1.3122,1.3659,1.9236,2.7587,1.9236
				c1.0798-0.0115,1.9707-0.0422,2.7798-0.095c2.6579-0.1727,4.1947-0.5692,6.9842-1.2901
				c0.6355-0.1641,1.3314-0.3436,2.1137-0.5384c0.7718-0.1939,1.5339-0.2918,2.2634-0.2918c4.237,0,6.6184,3.2195,7.3566,5.122
				c1.3237,3.4057,2.5379,60.0978-0.1757,63.1983c-2.4563,2.8067-20.4668,9.8196-24.1432,9.8196
				c-0.2457,0-0.454-0.0259-0.6374-0.0778c-1.0598-0.3033-1.9064-1.2891-2.8039-2.3326
				C103.507,119.7587,102.5058,118.5953,101.6141,118.5953z"/>
		</g>
	</g>
</g>
</svg>
