<?xml version="1.0" encoding="utf-8"?>
<!-- Generator: Adobe Illustrator 21.0.0, SVG Export Plug-In . SVG Version: 6.00 Build 0)  -->
<!DOCTYPE svg PUBLIC "-//W3C//DTD SVG 1.1//EN" "http://www.w3.org/Graphics/SVG/1.1/DTD/svg11.dtd">
<svg version="1.1" id="XMLID_2_" xmlns="http://www.w3.org/2000/svg" xmlns:xlink="http://www.w3.org/1999/xlink" x="0px" y="0px"
	 viewBox="0 0 192.7996 111.8508" enable-background="new 0 0 192.7996 111.8508" xml:space="preserve">
<g id="combo-punchbowl">
	<path fill="#FFFFFF" stroke="#2D3538" d="M151.4174,27.8075l-25.2008,17.1159c0.3153,0.1639,0.589,0.3715,0.8229,0.6146
		c0.5066-0.0865,0.9995-0.1695,1.4606-0.2491c0.8617-0.1487,1.6304-0.0231,2.2816,0.2836l22.3784-15.199L151.4174,27.8075z"/>
	<path fill="#FFFFFF" stroke="#2D3538" stroke-width="2" d="M152.07,29.325c0,0-2.7882-3.6778-1.2067-5.0297
		c1.5816-1.3519,4.3594-1.0166,4.3594-1.0166s3.0832-1.5385,7.835-4.7659c4.7518-3.2273,6.6958-8.3957,11.8389-11.8648
		c5.1431-3.4691,8.6611-1.9699,8.6611-1.9699s0.4233-1.6259,1.5943-2.56c1.1709-0.9341,4.1891-2.2897,6.278,0.7859"/>
	<path fill="#FFFFFF" stroke="#2D3538" stroke-width="2" d="M152.07,29.325c0,0,2.2232,3.7008,4.0629,2.729
		c1.8398-0.9718,2.5521-3.6776,2.5521-3.6776s2.5668-2.2988,7.3186-5.5262c4.7518-3.2273,10.2728-3.1291,15.3936-6.631
		c5.1208-3.502,5.0241-7.3248,5.0241-7.3248s1.6674,0.2059,2.9675-0.5382s3.6728-3.05,1.5839-6.1256"/>
	<path fill="none" stroke="#2D3538" stroke-width="2" d="M107.9514,105.8921c25.3564-7.9323,41.8967-27.4203,46.4097-60.7138H1.153
		c4.5234,31.6595,21.2664,52.0822,46.9138,60.5015"/>
	<rect x="47.4761" y="105.5304" fill="none" stroke="#2D3538" stroke-width="2" width="60.562" height="5.3203"/>
</g>
</svg>
