<?xml version="1.0" encoding="utf-8"?>
<!-- Generator: Adobe Illustrator 21.0.0, SVG Export Plug-In . SVG Version: 6.00 Build 0)  -->
<!DOCTYPE svg PUBLIC "-//W3C//DTD SVG 1.1//EN" "http://www.w3.org/Graphics/SVG/1.1/DTD/svg11.dtd">
<svg version="1.1" id="XMLID_2_" xmlns="http://www.w3.org/2000/svg" xmlns:xlink="http://www.w3.org/1999/xlink" x="0px" y="0px"
	 viewBox="0 0 82.8376 65.956" enable-background="new 0 0 82.8376 65.956" xml:space="preserve">
<g id="glass-mug">
	<g>
		<g>
			<path d="M28.7718,62.7373c-0.7607-0.0098-18.0937-0.2413-24.0713-1.1612c-1.4863-0.2285-4.5791-0.7041-4.6972-31.123
				c-0.0567-14.6377,0.6259-29.3535,0.6328-29.5C0.6615,0.4199,1.1009,0,1.6351,0h54.248c0.5342,0,0.9737,0.4199,0.9991,0.9531
				c0,0,0.1504,3.2021,0.3047,8.125c0.0175,0.5517-0.4161,1.0137-0.9678,1.0303c-0.5293,0.0546-1.0137-0.4151-1.0303-0.9678
				C55.0843,5.8242,54.9818,3.2919,54.9261,2H2.5921C2.4448,5.4521,1.9652,17.7363,2.0013,30.0527
				c0.084,27.7666,2.7109,29.4482,3.0098,29.5478c5.834,0.8975,23.582,1.1348,23.7607,1.1368
				c0.1533-0.002,17.9014-0.2393,23.7403-1.1377c0.0029-0.002,0.8584-0.334,1.6289-4.7012c0.0957-0.544,0.6152-0.9102,1.1582-0.8106
				c0.5439,0.0957,0.9072,0.6143,0.8105,1.1582c-0.7295,4.1397-1.7451,6.0918-3.293,6.3301
				C46.8392,62.496,29.5072,62.7275,28.7718,62.7373z"/>
		</g>
		<g>
			<path d="M56.2152,44.5722c-0.0166,0-0.0322,0-0.0489-0.001c-0.5517-0.0263-0.9775-0.4951-0.9511-1.0468
				c0.3017-6.3086,0.3789-14.2549,0.2295-23.6182c-0.0088-0.5518,0.4316-1.0068,0.9843-1.0156
				c0.5801-0.0352,1.0069,0.4326,1.0157,0.9844c0.1494,9.4043,0.0722,17.3935-0.2315,23.7451
				C57.1878,44.1552,56.7455,44.5722,56.2152,44.5722z"/>
		</g>
		<g>
			<path d="M49.4466,65.956H8.0716c-2.3261,0-4.2187-1.8926-4.2187-4.2187v-1.1495c0-0.2763,0.1142-0.54,0.3154-0.7294
				c0.2022-0.1885,0.4746-0.2774,0.749-0.2686c0.1787,0.0117,17.959,1.1475,23.8418,1.1475s23.6621-1.1358,23.8408-1.1475
				c0.2784-0.0088,0.5469,0.0801,0.7491,0.2686c0.2011,0.1894,0.3154,0.4531,0.3154,0.7294v1.1495
				C53.6644,64.0634,51.7728,65.956,49.4466,65.956z M5.8529,61.6533v0.084c0,1.2236,0.9951,2.2187,2.2187,2.2187h41.375
				c1.2227,0,2.2178-0.9951,2.2178-2.2187v-0.084c-3.9727,0.248-17.7314,1.084-22.9053,1.084
				C23.5853,62.7373,9.8255,61.9013,5.8529,61.6533z"/>
		</g>
		<g>
			<path d="M28.7591,58.0996c-4.1435,0-21.4619-1.2569-24.2597-4.0537c-2.6055-2.6055-1.4366-47.0293-1.295-52.086
				c0.0078-0.2764,0.2354-0.5078,0.5137-0.4863c0.2764,0.0078,0.4941,0.2383,0.4863,0.5137
				c-0.5312,18.9355-0.7285,49.6201,1.002,51.3515c2.2627,2.2617,17.8447,3.7608,23.5527,3.7608s21.2901-1.4991,23.5518-3.7608
				c0.0156-0.0156,0.1582-0.1738,0.333-0.9043c0.0635-0.2685,0.3291-0.4394,0.6025-0.3701c0.2686,0.0645,0.4346,0.334,0.3701,0.6025
				c-0.1699,0.71-0.3544,1.1358-0.5986,1.379C50.221,56.8427,32.9028,58.0996,28.7591,58.0996z"/>
		</g>
		<g>
			<path d="M53.929,44.6464c-0.0068,0-0.0146,0-0.0214,0c-0.2764-0.0127-0.4903-0.2461-0.4786-0.5214
				c0.25-5.7793,0.3204-14.004,0.211-24.4473c-0.0029-0.2754,0.2187-0.502,0.4951-0.5049c0.001,0,0.0029,0,0.0049,0
				c0.2734,0,0.4971,0.2207,0.5,0.4951c0.1094,10.46,0.0381,18.7031-0.211,24.5C54.4173,44.4365,54.1956,44.6464,53.929,44.6464z"/>
		</g>
		<g>
			<path d="M54.0111,11.3252c-0.2725,0-0.4951-0.2178-0.5-0.4913c-0.0967-5.2705-0.1973-8.8447-0.1973-8.8466
				c-0.0078-0.2754,0.21-0.5059,0.4863-0.5137c0.295-0.0225,0.5059,0.2099,0.5137,0.4863c0,0,0.1006,3.5791,0.1973,8.8565
				c0.0049,0.2754-0.2149,0.5039-0.4912,0.5088C54.0169,11.3252,54.014,11.3252,54.0111,11.3252z"/>
		</g>
		<g>
			<path d="M66.7874,56.3779c-4.958,0-11.6425-0.3047-11.7099-0.3076c-0.1797-0.0088-0.3545-0.0655-0.5049-0.1641
				c-0.1816-0.1201-4.416-3.0049-2.8838-9.79c0.0088-0.0371,0.0186-0.0733,0.0313-0.1094c1.0078-2.8828,2.4404-4.6045,3.833-4.6045
				c0.4365,0,0.8408,0.1729,1.1377,0.4863c0.2646,0.2793,0.5703,0.8076,0.5214,1.7373c-0.0146,0.2637,0.2139,0.8301,0.9053,1.5596
				c1.3281,1.4014,3.9297,2.9092,6.5,2.9092c4.2432,0,6.958-0.585,8.2793-3.5772c1.4961-3.3838,2.4297-17.8564,1.1026-22.5019
				c-1.0889-3.8125-4.9541-5.5488-8.084-5.5488c-0.3252,0-0.6397,0.0205-0.9366,0.0595c-1.2099,0.1612-2.8222,1.21-4.3818,2.2227
				c-1.876,1.2197-3.6484,2.3711-5.2236,2.3711c-0.7295,0-1.3574-0.2412-1.8662-0.7168c-1.7129-1.5996-3.1748-4.791-2.5117-7.5537
				c0.3759-1.5684,1.5908-3.6582,5.2451-4.7119c0.042-0.0118,0.0849-0.0215,0.1279-0.0274
				c0.1953-0.0303,4.8457-0.7266,9.0439-0.7266c2.6045,0,4.4375,0.2647,5.6045,0.8086c3.3174,1.5489,11.0889,5.8487,11.6075,12.3194
				c0.3877,4.8418,0.4814,26.0429-1.8204,28.9717c-2.7138,3.4541-6.6416,5.8349-8.4804,6.5244
				C71.8646,56.1796,70.8198,56.3779,66.7874,56.3779z M55.4818,54.0859c1.374,0.0596,7.0029,0.292,11.3056,0.292
				c3.9786,0,4.7256-0.2022,4.835-0.2432c1.6348-0.6133,5.1465-2.7539,7.6094-5.8877c1.5254-1.9414,1.9424-20.7822,1.3984-27.5752
				c-0.4463-5.5761-8.1181-9.5742-10.459-10.667c-0.6074-0.2832-1.9257-0.6211-4.7588-0.6211c-3.789,0-8.1044,0.6104-8.6806,0.6944
				c-2.1533,0.6338-3.4287,1.7236-3.792,3.2373c-0.5108,2.1299,0.8515,4.6162,1.9326,5.6269
				c0.0947,0.0879,0.2275,0.1778,0.501,0.1778c0.9824,0,2.6562-1.0879,4.1338-2.0479c1.7451-1.1338,3.5498-2.3066,5.208-2.5283
				c3.958-0.5264,9.6865,1.5977,11.208,6.9229c1.4756,5.1669,0.4795,20.0664-1.1963,23.8593
				c-1.9434,4.4004-6.2373,4.7686-10.1094,4.7686c-3.1787,0-6.2842-1.7744-7.9512-3.5332c-0.9433-0.9942-1.4433-1.9863-1.455-2.8819
				c-0.376,0.3926-0.9903,1.2539-1.584,2.9327C52.6048,51.2353,54.7865,53.499,55.4818,54.0859z"/>
		</g>
	</g>
</g>
</svg>
