<?xml version="1.0" encoding="utf-8"?>
<!-- Generator: Adobe Illustrator 21.0.0, SVG Export Plug-In . SVG Version: 6.00 Build 0)  -->
<!DOCTYPE svg PUBLIC "-//W3C//DTD SVG 1.1//EN" "http://www.w3.org/Graphics/SVG/1.1/DTD/svg11.dtd">
<svg version="1.1" id="XMLID_2_" xmlns="http://www.w3.org/2000/svg" xmlns:xlink="http://www.w3.org/1999/xlink" x="0px" y="0px"
	 viewBox="0 0 56.8643 111.7295" enable-background="new 0 0 56.8643 111.7295" xml:space="preserve">
<g id="glass-pilsner">
	<g>
		<g>
			<path d="M47.0357,99.4326H9.8287c-0.2769,0-0.5411-0.1143-0.7305-0.3164c-0.189-0.2022-0.2857-0.4736-0.2671-0.75
				c0.1333-2.0039,0.8804-4.9502,1.7451-8.3623c1.25-4.9317,2.667-10.5215,2.667-14.9053c0-1.9385-1.1045-5.3447-2.6328-10.0586
				C6.6421,52.7998,0,32.3135,0,1c0-0.5528,0.4478-1,1-1h54.8643c0.5522,0,1,0.4472,1,1c0,31.3135-6.6416,51.7998-10.6104,64.04
				c-1.5283,4.7139-2.6323,8.1201-2.6323,10.0586c0,4.3838,1.4165,9.9736,2.6665,14.9053c0.8648,3.4121,1.6118,6.3584,1.7451,8.3623
				c0.0186,0.2764-0.0781,0.5478-0.267,0.75C47.5767,99.3183,47.3125,99.4326,47.0357,99.4326z M10.9458,97.4326h34.9727
				c-0.2637-1.7871-0.8774-4.21-1.5688-6.9375c-1.2789-5.0449-2.7281-10.7627-2.7281-15.3965c0-2.2549,1.086-5.6045,2.73-10.6758
				C48.2413,52.4267,54.7222,32.4345,54.8619,2H2.0025c0.1396,30.4345,6.6211,50.4267,10.5107,62.4228
				c1.6441,5.0713,2.73,8.4209,2.73,10.6758c0,4.6328-1.4492,10.3516-2.728,15.3965
				C11.8238,93.2226,11.2095,95.6455,10.9458,97.4326z"/>
		</g>
		<g>
			<path d="M45.0245,111.7295H11.8399c-1.4736,0-2.8594-0.6504-3.8023-1.7832c-0.9492-1.1416-1.3378-2.6338-1.0673-4.0957
				c0.7807-4.2149,1.8613-7.584,1.9067-7.7246c0.1333-0.4131,0.5176-0.6934,0.9517-0.6934h37.207
				c0.4341,0,0.8183,0.2803,0.9516,0.6924c0.0455,0.1416,1.1265,3.5107,1.9073,7.7246c0.2705,1.4629-0.1182,2.9551-1.0674,4.0957
				C47.8843,111.0791,46.4981,111.7295,45.0245,111.7295z M10.5689,99.4326c-0.353,1.1924-1.0786,3.7939-1.6318,6.7822
				c-0.1626,0.875,0.0703,1.7695,0.6381,2.4522c0.5616,0.6748,1.3872,1.0625,2.2647,1.0625h33.1846
				c0.8779,0,1.7036-0.3877,2.2651-1.0625c0.5679-0.6827,0.8003-1.5772,0.6382-2.4532c-0.5542-2.9921-1.2788-5.5898-1.6323-6.7812
				H10.5689z"/>
		</g>
		<g>
			<path d="M28.4322,96.7246c-4.7061,0-14.7803-1.252-14.8814-1.2647c-0.2358-0.0293-0.4184-0.2207-0.4365-0.458
				c-0.1479-1.9531,0.8877-5.7949,1.9849-9.8623c1.0092-3.7431,2.1533-7.9863,1.8134-9.2832
				c-1.1606-4.4297-2.5537-8.3349-4.0283-12.4697C8.7232,51.7187,3.544,37.1982,0.502,1.042
				C0.4786,0.7666,0.6831,0.5254,0.9581,0.5019c0.2744-0.0156,0.517,0.1817,0.54,0.4561
				c3.0317,36.0263,8.1865,50.4795,12.3281,62.0928c1.4824,4.1552,2.8823,8.081,4.0542,12.5517
				c0.4072,1.5547-0.623,5.375-1.8159,9.7979c-0.9546,3.54-1.9395,7.1914-1.9644,9.1191
				c1.9659,0.2373,10.2364,1.2051,14.3321,1.2051c4.0962,0,12.3667-0.9678,14.3325-1.2051
				c-0.0254-1.9277-1.0098-5.5781-1.9644-9.1172c-1.1928-4.4238-2.2231-8.2451-1.8159-9.7998
				c1.1719-4.4717,2.5718-8.3965,4.0542-12.5527C47.1807,51.4365,52.335,36.9834,55.3663,0.958
				c0.0229-0.2744,0.2758-0.4707,0.54-0.4561c0.2749,0.0235,0.4795,0.2647,0.456,0.5401
				c-3.0415,36.1552-8.2207,50.6757-12.3818,62.3437c-1.4746,4.1348-2.8677,8.041-4.0283,12.4707
				c-0.3403,1.2979,0.8042,5.541,1.814,9.2862c1.0966,4.0654,2.1323,7.9062,1.9843,9.8593c-0.018,0.2373-0.2007,0.4287-0.4365,0.458
				C43.2129,95.4726,33.1387,96.7246,28.4322,96.7246z"/>
		</g>
	</g>
</g>
</svg>
