<?xml version="1.0" encoding="utf-8"?>
<!-- Generator: Adobe Illustrator 21.0.0, SVG Export Plug-In . SVG Version: 6.00 Build 0)  -->
<!DOCTYPE svg PUBLIC "-//W3C//DTD SVG 1.1//EN" "http://www.w3.org/Graphics/SVG/1.1/DTD/svg11.dtd">
<svg version="1.1" id="XMLID_2_" xmlns="http://www.w3.org/2000/svg" xmlns:xlink="http://www.w3.org/1999/xlink" x="0px" y="0px"
	 viewBox="0 0 57.2527 83.3979" enable-background="new 0 0 57.2527 83.3979" xml:space="preserve">
<g id="glass-cocktail-alt">
	<g>
		<g>
			<path d="M30.8654,75.4643h-4.478c-0.5513,0-0.9991-0.4463-1-0.998l-0.0772-35.7739c-1.4072-0.2994-3.1167-1.2105-3.1738-3.3111
				C21.3927,33.2519,8.3166,13.5757,0.1725,1.561c-0.208-0.3061-0.2295-0.7026-0.0556-1.0293C0.2902,0.2046,0.63,0,1.0002,0h55.2524
				c0.3701,0,0.71,0.2046,0.8833,0.5317c0.1738,0.3267,0.1523,0.7232-0.0557,1.0293C48.9362,13.5757,35.86,33.2519,35.1164,35.3813
				c-0.0572,2.1006-1.7666,3.0117-3.1739,3.3111l-0.0771,35.7739C31.8644,75.018,31.4167,75.4643,30.8654,75.4643z M27.3854,73.4643
				h2.482l0.0771-35.6548c0.001-0.542,0.4336-0.9843,0.9751-0.9975c0.0854-0.0029,2.1982-0.0908,2.1982-1.5396
				c0-1.5366,11.3096-18.5854,21.2496-33.2724H2.8854c9.94,14.687,21.2495,31.7358,21.2495,33.2724
				c0,1.4488,2.1128,1.5367,2.2027,1.5396c0.5381,0.018,0.9697,0.459,0.9707,0.9975L27.3854,73.4643z"/>
		</g>
		<g>
			<path d="M33.6271,78.2807c-0.0068-0.0009-0.0137-0.0005-0.02,0h-9.9614c-0.4019,0-0.7652-0.2407-0.9214-0.6113
				c-0.1563-0.3701-0.0757-0.7983,0.2051-1.0864l2.7417-2.8164c0.1879-0.1934,0.4463-0.3023,0.7163-0.3023h4.478
				c0.27,0,0.5283,0.1089,0.7163,0.3023l2.6338,2.7055c0.2495,0.1817,0.4116,0.4761,0.4116,0.8086
				C34.6271,77.833,34.1794,78.2807,33.6271,78.2807z M26.0148,76.2807h5.2232l-0.7945-0.8164h-3.6343L26.0148,76.2807z"/>
		</g>
		<g>
			<path d="M47.1047,83.3979H10.2472c-0.4653,0-0.8691-0.3213-0.9741-0.7744c-0.105-0.4536,0.1167-0.9194,0.5347-1.124
				c2.9394-1.4375,13.125-5.0112,13.5571-5.1626c0.106-0.0371,0.2178-0.0562,0.3306-0.0562h9.9609
				c0.1128,0,0.2246,0.0191,0.3306,0.0562c0.4321,0.1514,10.6172,3.7251,13.5571,5.1626c0.418,0.2046,0.6397,0.6704,0.5347,1.124
				C47.9738,83.0766,47.57,83.3979,47.1047,83.3979z M15.3171,81.3979h26.7177c-3.5405-1.3481-7.6889-2.8144-8.5493-3.1172h-9.6196
				C23.006,78.5835,18.8576,80.0498,15.3171,81.3979z"/>
		</g>
		<g>
			<path d="M28.6266,33.9028c-1.7671,0-3.5342-0.2227-4.6118-0.667c-2.1225-0.876-6.2417-6.1118-6.416-6.334
				c-0.1704-0.2177-0.1323-0.5317,0.085-0.7021c0.2177-0.1709,0.5322-0.1314,0.7021,0.0849
				c1.1426,1.458,4.4497,5.3829,6.0103,6.0264c1.9375,0.7998,6.5234,0.7998,8.4599,0c1.5611-0.6435,4.8682-4.5684,6.0108-6.0264
				c0.1709-0.2163,0.4843-0.2558,0.7021-0.0849c0.2173,0.1704,0.2554,0.4844,0.085,0.7021c-0.1743,0.2222-4.2935,5.458-6.4165,6.334
				C32.1608,33.6801,30.3932,33.9028,28.6266,33.9028z"/>
		</g>
	</g>
</g>
</svg>
