<?xml version="1.0" encoding="utf-8"?>
<!-- Generator: Adobe Illustrator 21.0.0, SVG Export Plug-In . SVG Version: 6.00 Build 0)  -->
<!DOCTYPE svg PUBLIC "-//W3C//DTD SVG 1.1//EN" "http://www.w3.org/Graphics/SVG/1.1/DTD/svg11.dtd">
<svg version="1.1" id="XMLID_1_" xmlns="http://www.w3.org/2000/svg" xmlns:xlink="http://www.w3.org/1999/xlink" x="0px" y="0px"
	 viewBox="0 0 42.7848 77.584" enable-background="new 0 0 42.7848 77.584" xml:space="preserve">
<g id="glass-collins">
	<g>
		<g>
			<path d="M38.4159,70.0186H4.3695c-0.5249,0-0.9605-0.4063-0.9976-0.9297c-0.2451-3.4746-0.5024-6.9717-0.7607-10.4844
				C1.2128,39.584-0.233,19.917,0.0316,0.9864C0.0394,0.4395,0.4847,0,1.0316,0h40.7217c0.5469,0,0.9922,0.4395,1,0.9864
				c0.2646,18.9277-1.1807,38.5908-2.5786,57.6074c-0.2583,3.5156-0.5161,7.0166-0.7613,10.4951
				C39.3763,69.6123,38.9408,70.0186,38.4159,70.0186z M5.3011,68.0186h32.1831c0.2256-3.1738,0.46-6.3662,0.6958-9.5713
				C39.5506,39.8047,40.9667,20.5381,40.7655,2H2.0194C1.8182,20.5411,3.2347,39.8116,4.6058,58.4571
				C4.8412,61.6592,5.076,64.8477,5.3011,68.0186z"/>
		</g>
		<g>
			<path d="M38.4286,77.584H4.3568c-0.5522,0-1-0.4472-1-1v-7.5654c0-0.5527,0.4478-1,1-1h34.0718c0.5522,0,1,0.4473,1,1v7.5654
				C39.4286,77.1368,38.9808,77.584,38.4286,77.584z M5.3568,75.584h32.0718v-5.5654H5.3568V75.584z"/>
		</g>
		<g>
			<path d="M21.3964,67.1446c-1.4361-0.0117-14.0103-0.1465-15.753-1.3076c-1.7759-1.1836-2.5976-8.6582-2.7441-10.1446
				c-0.0274-0.2744,0.1738-0.5195,0.4482-0.5469c0.2857-0.0185,0.52,0.1739,0.5469,0.4493c0.3457,3.5,1.2891,8.7334,2.3037,9.4101
				c1.125,0.75,9.9194,1.0967,15.1983,1.1397c5.2709-0.043,14.0654-0.3897,15.1904-1.1397
				c1.0151-0.6767,1.9585-5.9101,2.3042-9.4101c0.0268-0.2754,0.2602-0.4698,0.5469-0.4493
				c0.2744,0.0274,0.4755,0.2725,0.4482,0.5469c-0.1465,1.4864-0.9688,8.961-2.7446,10.1446
				C35.3993,66.9981,22.8246,67.1329,21.3964,67.1446z"/>
		</g>
	</g>
</g>
</svg>
