<?xml version="1.0" encoding="utf-8"?>
<!-- Generator: Adobe Illustrator 21.0.0, SVG Export Plug-In . SVG Version: 6.00 Build 0)  -->
<!DOCTYPE svg PUBLIC "-//W3C//DTD SVG 1.1//EN" "http://www.w3.org/Graphics/SVG/1.1/DTD/svg11.dtd">
<svg version="1.1" id="XMLID_1_" xmlns="http://www.w3.org/2000/svg" xmlns:xlink="http://www.w3.org/1999/xlink" x="0px" y="0px"
	 viewBox="0 0 56.0557 77.584" enable-background="new 0 0 56.0557 77.584" xml:space="preserve">
<g id="glass-snifter">
	<g>
		<g>
			<path d="M44.7256,77.584H11.3301c-0.4658,0-0.8692-0.3213-0.9746-0.7744c-0.1045-0.4536,0.1172-0.9195,0.5351-1.124
				c2.669-1.3047,11.9024-4.5445,12.294-4.6817c0.1064-0.0371,0.2187-0.0561,0.331-0.0561h9.0254
				c0.1123,0,0.2246,0.019,0.3311,0.0561c0.3916,0.1372,9.624,3.377,12.2929,4.6817c0.418,0.2045,0.6397,0.6704,0.5352,1.124
				C45.5947,77.2627,45.1914,77.584,44.7256,77.584z M16.4365,75.584h23.1826c-3.0703-1.1597-6.4775-2.3647-7.249-2.6362h-8.6836
				C22.915,73.2193,19.5078,74.4243,16.4365,75.584z"/>
		</g>
		<g>
			<path d="M33.3828,52.6768h-10.71c-0.0605,0-0.1201-0.0054-0.1796-0.0161C9.0391,50.2036,0,41.8643,0,31.9092
				C0,21.8867,9.3271,1.4483,9.7236,0.583C9.8867,0.2276,10.2422,0,10.6328,0h34.79c0.3907,0,0.7461,0.2276,0.9092,0.583
				c0.3965,0.8653,9.7237,21.3037,9.7237,31.3262c0,9.9556-9.0391,18.2949-22.4932,20.7515
				C33.5029,52.6714,33.4434,52.6768,33.3828,52.6768z M22.7637,50.6768H33.292c12.4228-2.2969,20.7637-9.8311,20.7637-18.7676
				c0-8.6792-7.7422-26.4653-9.2793-29.9092H11.2793C9.7422,5.4439,2,23.23,2,31.9092C2,40.8457,10.3408,48.3799,22.7637,50.6768z"
				/>
		</g>
		<g>
			<path d="M30.7686,56.3428h-5.4815c-0.3242,0-0.6289-0.1572-0.8164-0.4219l-2.5967-3.666
				c-0.2158-0.3052-0.2431-0.7056-0.0722-1.0376c0.1718-0.332,0.5146-0.5405,0.8886-0.5405h10.6748
				c0.3741,0,0.7168,0.2085,0.8887,0.5405c0.1709,0.332,0.1436,0.7324-0.0723,1.0376l-2.5966,3.666
				C31.3975,56.1856,31.0928,56.3428,30.7686,56.3428z M25.8047,54.3428h4.4463l1.1806-1.666H24.624L25.8047,54.3428z"/>
		</g>
		<g>
			<path d="M30.7148,69.8208h-5.374c-0.5527,0-1-0.4477-1-1v-13.478c0-0.5523,0.4473-1,1-1h5.374c0.5528,0,1,0.4477,1,1v13.478
				C31.7148,69.3731,31.2676,69.8208,30.7148,69.8208z M26.3408,67.8208h3.374v-11.478h-3.374V67.8208z"/>
		</g>
		<g>
			<path d="M34.2207,72.9478H21.835c-0.4151,0-0.7872-0.2564-0.9346-0.6441c-0.1475-0.3872-0.041-0.8261,0.2685-1.102l3.5059-3.127
				c0.1836-0.1636,0.4209-0.2539,0.666-0.2539h5.374c0.2452,0,0.4825,0.0903,0.6661,0.2539l3.5058,3.127
				c0.3096,0.2759,0.416,0.7148,0.2686,1.102C35.0078,72.6914,34.6357,72.9478,34.2207,72.9478z M24.458,70.9478h7.1397
				l-1.2637-1.127h-4.6123L24.458,70.9478z"/>
		</g>
		<g>
			<path d="M28.0283,48.6187c-17.2187,0-21.1025-4.7642-26.0205-10.7959l-0.6123-0.75c-0.1748-0.2134-0.1435-0.5284,0.0693-0.7036
				c0.2149-0.1744,0.5293-0.1451,0.7041,0.0698l0.6143,0.7519c4.9355,6.0537,8.502,10.4278,25.2451,10.4278
				c16.7422,0,20.3086-4.3741,25.2442-10.4278l0.6142-0.7519c0.1758-0.2149,0.4903-0.2442,0.7041-0.0698
				c0.2129,0.1752,0.2442,0.4902,0.0694,0.7036l-0.6124,0.75C49.1299,43.8545,45.2461,48.6187,28.0283,48.6187z"/>
		</g>
	</g>
</g>
</svg>
