<?xml version="1.0" encoding="utf-8"?>
<!-- Generator: Adobe Illustrator 21.0.0, SVG Export Plug-In . SVG Version: 6.00 Build 0)  -->
<!DOCTYPE svg PUBLIC "-//W3C//DTD SVG 1.1//EN" "http://www.w3.org/Graphics/SVG/1.1/DTD/svg11.dtd">
<svg version="1.1" id="XMLID_2_" xmlns="http://www.w3.org/2000/svg" xmlns:xlink="http://www.w3.org/1999/xlink" x="0px" y="0px"
	 viewBox="0 0 43.5846 54.3272" enable-background="new 0 0 43.5846 54.3272" xml:space="preserve">
<g id="glass-rocks_2_">
	<g>
		<g>
			<path d="M41.3519,47.127H2.2318c-0.5415,0-0.9849-0.4312-0.9995-0.9727L0.0004,1.0274c-0.0074-0.27,0.0947-0.5313,0.2827-0.7246
				C0.4716,0.1094,0.7299,0,0.9999,0h41.5844c0.2696,0,0.5284,0.1094,0.7168,0.3028c0.1885,0.1933,0.2901,0.4546,0.2832,0.7246
				l-1.2324,45.1269C42.3363,46.6958,41.8939,47.127,41.3519,47.127z M3.205,45.127h37.1743L41.557,2H2.0277L3.205,45.127z"/>
		</g>
		<g>
			<path d="M40.8529,54.3272H2.7308c-0.8476,0-1.5376-0.69-1.5376-1.5376v-6.1255c0-0.8477,0.69-1.5371,1.5376-1.5371h38.1221
				c0.8477,0,1.5381,0.6894,1.5381,1.5371v6.1255C42.391,53.6372,41.7006,54.3272,40.8529,54.3272z M3.1932,52.3272H40.391V47.127
				H3.1932V52.3272z"/>
		</g>
		<g>
			<path d="M26.6625,45.48c-2.023,0-3.7984-0.019-4.877-0.0342C17.9784,45.5,5.4022,45.6036,4.0858,44.7281
				c-0.8628-0.5743-1.3247-4.3946-2.1943-14.8672c-0.2949-3.5518-0.5738-6.9068-0.8145-8.0176
				c-0.0586-0.27,0.1128-0.5361,0.3828-0.5947c0.272-0.0581,0.5362,0.1133,0.5948,0.3828c0.2544,1.1753,0.5229,4.4058,0.8335,8.1465
				c0.4145,4.9951,1.1088,13.3554,1.7851,14.145c0.8692,0.5024,10.5347,0.6143,17.1123,0.5229
				c6.5879,0.0904,16.2569-0.02,17.1621-0.5522c0.6407-0.7607,1.334-9.1226,1.7491-14.1187
				c0.3105-3.7392,0.5781-6.9687,0.833-8.1435c0.0586-0.2695,0.3291-0.4404,0.5937-0.3828
				c0.2705,0.0586,0.4414,0.3247,0.3828,0.5947c-0.2402,1.1108-0.5185,4.4639-0.8135,8.0142
				c-0.8691,10.4751-1.331,14.2963-2.1933,14.8706C38.5541,45.3565,31.808,45.48,26.6625,45.48z"/>
		</g>
	</g>
</g>
</svg>
