<?xml version="1.0" encoding="utf-8"?>
<!-- Generator: Adobe Illustrator 21.0.0, SVG Export Plug-In . SVG Version: 6.00 Build 0)  -->
<!DOCTYPE svg PUBLIC "-//W3C//DTD SVG 1.1//EN" "http://www.w3.org/Graphics/SVG/1.1/DTD/svg11.dtd">
<svg version="1.1" id="XMLID_1_" xmlns="http://www.w3.org/2000/svg" xmlns:xlink="http://www.w3.org/1999/xlink" x="0px" y="0px"
	 viewBox="0 0 49.1867 147.4635" enable-background="new 0 0 49.1867 147.4635" xml:space="preserve">
<g id="glass-tiki">
	<g>
		<g>
			<path d="M40.2764,147.4635H9.5967c-2.4698,0-4.2852-2.7178-4.6455-4.6797c-0.8174-4.4424-0.5254-20.0459-0.2432-25.4658
				c0.0498-0.9541,0.0996-1.9101,0.1435-2.8623c0.1114-2.3994-0.6816-4.3164-1.4472-6.1699
				c-0.6983-1.6895-1.4199-3.4356-1.375-5.4229c0.0508-2.1855,0.1299-13.5263,0.1875-14.5049
				c0.0888-1.4873,0.1289-2.166-0.0488-3.9238c-0.211-2.0918-0.4161-13.7588-0.6036-15.2783
				c-0.8789-7.1436-1.3632-1.0781-0.1552-29.9473c0.0224-0.5351,0.4629-0.958,0.999-0.958h45.0566
				c0.5362,0,0.9766,0.4229,0.9991,0.958c1.208,28.8692,0.7236,22.8037-0.1553,29.9473
				c-0.1875,1.5195-0.3926,13.1865-0.6035,15.2783c-0.1778,1.7578-0.1377,2.4365-0.0489,3.9238
				c0.0577,0.9786,0.1368,12.3194,0.1875,14.5049c0.045,1.9873-0.6767,3.7334-1.375,5.4229
				c-0.7656,1.8535-1.5586,3.7705-1.4472,6.1699c0.0439,0.9522,0.0937,1.9082,0.1435,2.8623
				c0.2823,5.4199,0.5742,21.0234-0.2431,25.4658C44.5615,144.7457,42.7461,147.4635,40.2764,147.4635z M3.3672,40.2506
				c-1.1504,27.834-0.6739,21.7022,0.1826,28.6612C3.7383,70.443,3.9453,82.1247,4.1582,84.233
				c0.1933,1.918,0.1474,2.6944,0.0557,4.2432c-0.0577,0.9639-0.1358,12.2832-0.1846,14.4317
				c-0.0362,1.5673,0.5469,2.9785,1.2226,4.6132c0.8106,1.961,1.7295,4.1836,1.5977,7.0264c-0.0449,0.957-0.0947,1.917-0.1445,2.875
				c-0.2891,5.5479-0.5616,20.7881,0.2129,25c0.2519,1.3691,1.5371,3.041,2.6787,3.041h30.6797c1.1416,0,2.4267-1.6719,2.6787-3.041
				c0.7744-4.2119,0.5019-19.4521,0.2129-25c-0.0499-0.958-0.0997-1.918-0.1446-2.875c-0.1318-2.8428,0.7871-5.0654,1.5977-7.0264
				c0.6758-1.6347,1.2588-3.0459,1.2226-4.6132c-0.0488-2.1485-0.1269-13.4678-0.1845-14.4317
				c-0.0918-1.5488-0.1377-2.3252,0.0556-4.2432c0.2129-2.1083,0.42-13.79,0.6084-15.3212c0.8565-6.959,1.333-0.8272,0.1826-28.6612
				H3.3672z"/>
		</g>
		<g>
			<path d="M27.6173,82.0133c-1.2168,0-2.1866-0.0195-2.6934-0.0322c-2.2012,0.0566-13.3877,0.2432-15.0361-1.6748
				c-1.6153-1.877-4.1348-13.5244-4.417-14.8457c-0.0576-0.2705,0.1152-0.5361,0.3848-0.5938
				c0.2675-0.0527,0.5351,0.1143,0.5937,0.3848c0.751,3.5225,2.9707,12.9776,4.1963,14.4024
				c1.0371,1.206,9.3096,1.4541,14.2783,1.3271C29.922,81.111,38.1915,80.86,39.2276,79.654
				c1.2256-1.4248,3.4444-10.8799,4.1963-14.4024c0.0586-0.2705,0.3291-0.4375,0.5938-0.3848
				c0.2695,0.0577,0.4423,0.3233,0.3847,0.5938c-0.2822,1.3213-2.8027,12.9687-4.417,14.8457
				C38.713,81.7877,31.7472,82.0133,27.6173,82.0133z"/>
		</g>
		<path fill="none" stroke="#2D3538" stroke-width="2" d="M21.2727,83.4959c-0.1116,0.3348-2.9018,29.6875-2.9018,29.6875
			s14.7321,0.1116,14.6205,0c-0.1116-0.1116-3.7946-29.6875-3.7946-29.6875"/>
		<polyline fill="none" stroke="#2D3538" points="18.3709,87.9602 5.9825,90.862 9.5539,82.0136 		"/>
		<path fill="none" stroke="#2D3538" d="M9.5539,123.1165c0.3348,0,16.1275-4.9107,16.1275-4.9107l13.56,4.9107"/>
		<path fill="none" stroke="#2D3538" stroke-width="2" d="M9.5539,126.1165c0.3348,0,16.1275-4.9107,16.1275-4.9107l13.56,4.9107"/>
		<path fill="none" stroke="#2D3538" stroke-width="2" d="M21.0613,46.8665c-0.543,0.4464-9.5019,10.5134-9.5019,10.5134
			l9.5019,19.0848"/>
		<path fill="none" stroke="#2D3538" stroke-width="2" d="M28.5867,46.8665c0.543,0.4464,9.5019,10.5134,9.5019,10.5134
			l-9.5019,19.0848"/>
		<path fill="none" stroke="#2D3538" stroke-width="2" d="M32.992,84.4669"/>
		<path fill="none" stroke="#2D3538" d="M40.1443,81.2702l4.2692,9.5918c0,0-12.3149-2.9018-12.6497-2.9018"/>
	</g>
	<polygon fill="none" stroke="#000000" stroke-linecap="round" points="10.342,39.2197 7.1205,39.2197 0.5774,1.1147 3.7066,0.5774 
			"/>
</g>
</svg>
