<?xml version="1.0" encoding="utf-8"?>
<!-- Generator: Adobe Illustrator 21.0.0, SVG Export Plug-In . SVG Version: 6.00 Build 0)  -->
<!DOCTYPE svg PUBLIC "-//W3C//DTD SVG 1.1//EN" "http://www.w3.org/Graphics/SVG/1.1/DTD/svg11.dtd">
<svg version="1.1" id="XMLID_1_" xmlns="http://www.w3.org/2000/svg" xmlns:xlink="http://www.w3.org/1999/xlink" x="0px" y="0px"
	 viewBox="0 0 50.471 54.3272" enable-background="new 0 0 50.471 54.3272" xml:space="preserve">
<g id="glass-double-rocks">
	<g>
		<g>
			<path d="M47.3868,22.4302c-0.0341,0-0.0683-0.0014-0.1025-0.0054c-0.5498-0.0556-0.9492-0.5468-0.8936-1.0961L48.3634,2H2.1075
				l1.9727,19.3287c0.0557,0.5493-0.3438,1.0405-0.8936,1.0961c-0.5429,0.0582-1.04-0.3437-1.0966-0.893L0.005,1.1016
				c-0.0283-0.2812,0.0635-0.562,0.2529-0.772C0.4474,0.1197,0.7169,0,1.0002,0h48.4707c0.2832,0,0.5528,0.1197,0.7422,0.3296
				c0.1895,0.21,0.2813,0.4908,0.2529,0.772L48.381,21.5318C48.3282,22.0464,47.8937,22.4302,47.3868,22.4302z"/>
		</g>
		<g>
			<path d="M43.0079,54.3272H7.463c-0.5,0-0.9228-0.3692-0.9902-0.8643L2.0948,21.566c-0.0752-0.5469,0.3067-1.0513,0.8545-1.1265
				c0.545-0.0801,1.0508,0.3076,1.126,0.855l4.2598,31.0327h33.8008l4.2597-31.0327c0.0742-0.5474,0.5772-0.9341,1.126-0.855
				c0.5479,0.0752,0.9297,0.5796,0.8545,1.1265l-4.3779,31.8969C43.9308,53.958,43.5079,54.3272,43.0079,54.3272z"/>
		</g>
		<g>
			<path d="M25.2355,47.5728c-0.0088,0-0.0176,0-0.0264-0.0005c-13.8516-0.7319-16.6514-1.958-17.1729-4.1094
				c-0.0878-0.3628-0.2333-1.2265-0.4345-2.4218c-0.8145-4.8316-2.5098-14.8853-4.7549-18.4219
				c-0.1484-0.2334-0.0791-0.542,0.1543-0.69c0.2314-0.1499,0.542-0.0795,0.6894,0.1538C6.045,25.7901,7.7618,35.9786,8.588,40.8746
				c0.1904,1.1308,0.3408,2.0244,0.4209,2.353c0.3662,1.5122,3.2705,2.6601,16.2529,3.3457c0.2754,0.0146,0.4873,0.25,0.4727,0.5259
				C25.7208,47.3658,25.5002,47.5728,25.2355,47.5728z"/>
		</g>
		<g>
			<path d="M25.2355,47.5728c-0.2647,0-0.4854-0.207-0.4991-0.4736c-0.0146-0.2759,0.1973-0.5113,0.4727-0.5259
				c12.9824-0.6856,15.8867-1.8335,16.2529-3.3457c0.0801-0.3286,0.2305-1.2217,0.4209-2.3526
				c0.8262-4.8964,2.544-15.0849,4.8975-18.792c0.1475-0.2329,0.458-0.3007,0.6894-0.1542c0.2334,0.1484,0.3028,0.457,0.1543,0.6904
				c-2.2441,3.5366-3.9394,13.5903-4.7548,18.4219c-0.2012,1.1953-0.3467,2.059-0.4346,2.4218
				c-0.5215,2.1514-3.3213,3.3775-17.1729,4.1094C25.253,47.5728,25.2443,47.5728,25.2355,47.5728z"/>
		</g>
		<g>
			<path d="M25.2355,26.5039c-0.5528,0-1-0.4477-1-1c0-0.8715-2.3809-2.1894-5.9698-2.1894c-3.5888,0-5.9697,1.3179-5.9697,2.1894
				c0,0.5523-0.4473,1-1,1s-1-0.4477-1-1c0-2.3881,3.4258-4.1894,7.9697-4.1894c4.544,0,7.9698,1.8013,7.9698,4.1894
				C26.2355,26.0562,25.7882,26.5039,25.2355,26.5039z"/>
		</g>
		<g>
			<path d="M11.296,26.5039c-0.5527,0-1-0.4477-1-1c0-0.8715-2.3808-2.1894-5.9697-2.1894c-0.3359,0-0.666,0.0117-0.9883,0.0342
				c-0.5469,0.0312-1.0283-0.377-1.0674-0.9282c-0.0381-0.5513,0.378-1.0289,0.9287-1.0669
				c0.3672-0.0254,0.7442-0.0391,1.127-0.0391c4.5439,0,7.9697,1.8013,7.9697,4.1894C12.296,26.0562,11.8487,26.5039,11.296,26.5039
				z"/>
		</g>
		<g>
			
				<rect x="11.1421" y="24.4679" transform="matrix(0.9964 -0.0851 0.0851 0.9964 -2.9691 1.1619)" width="1.9994" height="21.869"/>
		</g>
		<g>
			<path d="M26.2355,47.1348h-2V25.5039c0-2.3881,3.4257-4.1894,7.9697-4.1894c4.5439,0,7.9697,1.8013,7.9697,4.1894v1h-2v-1
				c0-0.8715-2.3808-2.1894-5.9697-2.1894c-3.5889,0-5.9697,1.3179-5.9697,2.1894V47.1348z"/>
		</g>
		<g>
			<path d="M39.1749,26.5039c-0.5527,0-1-0.4477-1-1c0-2.3881,3.4268-4.1894,7.9707-4.1894c0.3828,0,0.7588,0.0137,1.126,0.0391
				c0.5508,0.038,0.9668,0.5156,0.9287,1.0669c-0.0391,0.5512-0.5215,0.9609-1.0674,0.9282
				c-0.3222-0.0225-0.6513-0.0342-0.9873-0.0342c-3.5888,0-5.9707,1.3179-5.9707,2.1894
				C40.1749,26.0562,39.7277,26.5039,39.1749,26.5039z"/>
		</g>
		<g>
			<rect x="27.3948" y="34.4027" transform="matrix(0.0852 -0.9964 0.9964 0.0852 -0.211 70.575)" width="21.869" height="1.9994"/>
		</g>
	</g>
</g>
</svg>
