<?xml version="1.0" encoding="utf-8"?>
<!-- Generator: Adobe Illustrator 21.0.0, SVG Export Plug-In . SVG Version: 6.00 Build 0)  -->
<!DOCTYPE svg PUBLIC "-//W3C//DTD SVG 1.1//EN" "http://www.w3.org/Graphics/SVG/1.1/DTD/svg11.dtd">
<svg version="1.1" id="XMLID_1_" xmlns="http://www.w3.org/2000/svg" xmlns:xlink="http://www.w3.org/1999/xlink" x="0px" y="0px"
	 viewBox="0 0 59.7994 83.3984" enable-background="new 0 0 59.7994 83.3984" xml:space="preserve">
<g id="glass-goblet">
	<g>
		<g>
			<path d="M36.5102,50.7353H23.2895c-0.2198,0-0.4346-0.0732-0.6084-0.207c-0.0166-0.0117-1.6631-1.2637-4.6348-2.75
				C4.558,41.0341,0.8588,30.9355,0.1303,23.6523C-0.6539,15.8115,2.352,1.4033,2.4799,0.7939C2.5775,0.331,2.9857,0,3.4584,0
				h52.8828c0.4727,0,0.8809,0.331,0.9785,0.7939c0.128,0.6094,3.1328,15.0176,2.3496,22.8584
				c-0.7285,7.2832-4.4267,17.3809-17.916,24.126c-2.9726,1.4863-4.6181,2.7373-4.6338,2.75
				C36.9447,50.6621,36.7299,50.7353,36.5102,50.7353z M23.6166,48.7353H36.183c0.6133-0.4375,2.207-1.5117,4.6758-2.7461
				c12.6738-6.3369,16.1426-15.7529,16.8203-22.5361C58.3305,16.9375,56.1439,5.1552,55.5229,2H4.2768
				C3.6547,5.1552,1.4682,16.9375,2.1205,23.4531c0.6777,6.7832,4.1465,16.1992,16.8203,22.5361
				C21.4096,47.2236,23.0023,48.2978,23.6166,48.7353z"/>
		</g>
		<g>
			<path d="M36.5102,54.7529H23.2895c-0.5528,0-1-0.4473-1-1v-4.0176c0-0.5527,0.4472-1,1-1h13.2207c0.5527,0,1,0.4473,1,1v4.0176
				C37.5102,54.3056,37.0629,54.7529,36.5102,54.7529z M24.2895,52.7529h11.2207v-2.0176H24.2895V52.7529z"/>
		</g>
		<g>
			<path d="M35.8617,70.1777H23.9369c-0.5527,0-1-0.4473-1-1v-6.999c0-0.5528,0.4473-1,1-1h11.9248c0.5528,0,1,0.4472,1,1v6.999
				C36.8617,69.7304,36.4145,70.1777,35.8617,70.1777z M24.9369,68.1777h9.9248v-4.999h-9.9248V68.1777z"/>
		</g>
		<g>
			<path d="M24.9467,63.1767c-0.1807,0-0.3643-0.0488-0.5293-0.1523c-2.2588-1.4131-3.5537-3.5635-3.5537-5.9014
				c0-1.4726,0.5215-2.8945,1.5097-4.1123c0.3477-0.4297,0.9766-0.4951,1.4063-0.1465c0.4287,0.3477,0.4951,0.9776,0.1465,1.4063
				c-0.6953,0.8574-1.0625,1.8437-1.0625,2.8525c0,1.6338,0.9531,3.167,2.6142,4.2061c0.4688,0.2929,0.6104,0.9101,0.3174,1.3779
				C25.6059,63.0107,25.2797,63.1767,24.9467,63.1767z"/>
		</g>
		<g>
			<path d="M34.85,63.1787c-0.333,0-0.6592-0.166-0.8486-0.4698c-0.293-0.4687-0.1504-1.0849,0.3174-1.3779
				c1.663-1.04,2.6171-2.5742,2.6171-4.208c0-1.0459-0.3925-2.0625-1.1367-2.9404c-0.3564-0.4219-0.3037-1.0528,0.1172-1.4102
				c0.4238-0.3554,1.0527-0.3027,1.4102,0.1172c1.0527,1.2442,1.6093,2.708,1.6093,4.2334c0,2.3389-1.2968,4.4902-3.5566,5.9033
				C35.2143,63.1298,35.0307,63.1787,34.85,63.1787z"/>
		</g>
		<g>
			<path d="M50.1195,79.7685H9.6801c-0.3194,0-0.6201-0.1523-0.8086-0.4111c-0.1875-0.2588-0.2412-0.5908-0.1436-0.8955
				c2.6192-8.1338,14.5401-10.1875,15.0459-10.2705c0.0537-0.0088,0.1084-0.0137,0.1631-0.0137h11.9248
				c0.0547,0,0.1084,0.0049,0.1631,0.0137c0.5059,0.083,12.4268,2.1367,15.0469,10.2705c0.0976,0.3047,0.0439,0.6367-0.1436,0.8955
				C50.7396,79.6162,50.4389,79.7685,50.1195,79.7685z M11.182,77.7685h37.4356c-2.9619-5.6445-11.9268-7.4228-12.8438-7.5908
				h-11.749C23.1078,70.3466,14.141,72.1357,11.182,77.7685z"/>
		</g>
		<g>
			<path d="M50.1195,83.3984H9.6801c-0.5528,0-1-0.4473-1-1v-3.6299c0-0.5527,0.4472-1,1-1h40.4394c0.5528,0,1,0.4473,1,1v3.6299
				C51.1195,82.9511,50.6723,83.3984,50.1195,83.3984z M10.6801,81.3984h38.4394v-1.6299H10.6801V81.3984z"/>
		</g>
		<g>
			<path d="M30.2396,47.2978c-0.371,0-0.3164,0-0.6855,0c-1.9639,0-11.499-0.0849-14.4277-1.708
				c-0.2412-0.1338-0.3291-0.4385-0.1953-0.6797c0.1347-0.2422,0.4404-0.3271,0.6796-0.1953
				c2.9737,1.6475,14.1719,1.5801,14.2852,1.582c0.1191-0.0048,11.3184,0.0664,14.293-1.582
				c0.2402-0.1318,0.5449-0.0469,0.6797,0.1953c0.1337,0.2412,0.0459,0.5459-0.1954,0.6797
				C41.7445,47.2119,32.2104,47.2978,30.2396,47.2978z"/>
		</g>
	</g>
</g>
</svg>
