<?xml version="1.0" encoding="utf-8"?>
<!-- Generator: Adobe Illustrator 21.0.0, SVG Export Plug-In . SVG Version: 6.00 Build 0)  -->
<!DOCTYPE svg PUBLIC "-//W3C//DTD SVG 1.1//EN" "http://www.w3.org/Graphics/SVG/1.1/DTD/svg11.dtd">
<svg version="1.1" id="XMLID_2_" xmlns="http://www.w3.org/2000/svg" xmlns:xlink="http://www.w3.org/1999/xlink" x="0px" y="0px"
	 viewBox="0 0 34.0705 124.0967" enable-background="new 0 0 34.0705 124.0967" xml:space="preserve">
<g id="glass-flute_2_">
	<g>
		<g>
			<path d="M33.0705,124.0967H1.0002c-0.4326,0-0.8159-0.2783-0.9507-0.6895c-0.1343-0.4111,0.0108-0.8623,0.3599-1.1172
				c2.7305-1.999,9.7822-4.1953,10.081-4.288c0.0957-0.0303,0.1958-0.045,0.2959-0.045h12.4976c0.1001,0,0.2002,0.0147,0.2959,0.045
				c0.2988,0.0927,7.3511,2.289,10.0815,4.288c0.3487,0.2549,0.4942,0.7061,0.3594,1.1172
				C33.8869,123.8184,33.5031,124.0967,33.0705,124.0967z M5.0734,122.0967h23.9239c-2.4776-1.0479-5.2193-1.9346-5.8672-2.1397
				h-12.19C10.2922,120.1631,7.551,121.0488,5.0734,122.0967z"/>
		</g>
		<g>
			<path d="M21.2795,115.7783h-8.4888c-0.3408,0-0.6587-0.1738-0.8423-0.4609c-0.1835-0.2871-0.2084-0.6485-0.0659-0.958
				c3.4146-7.3994,1.6519-22.7022,0.3648-33.875c-0.2642-2.2949-0.5093-4.4229-0.688-6.2881
				c-0.627-6.5469-3.2017-13.1143-5.4736-18.9092c-1.5357-3.916-2.9859-7.6152-3.7046-10.9214
				C0.5774,36.0684,0.57,14.5234,2.3669,0.8696C2.4323,0.3721,2.8562,0,3.3581,0h27.354c0.502,0,0.9258,0.3721,0.9912,0.8696
				c1.7969,13.6538,1.7901,35.1988-0.0136,43.4961c-0.7188,3.3062-2.169,7.0044-3.7051,10.9214
				c-2.272,5.7949-4.8472,12.3623-5.4737,18.9092c-0.1787,1.8652-0.4238,3.9941-0.6884,6.2891
				c-1.2871,11.1728-3.0498,26.4746,0.3652,33.874c0.1426,0.3095,0.1182,0.6709-0.0659,0.958
				C21.9382,115.6045,21.6203,115.7783,21.2795,115.7783z M14.2688,113.7783h5.5327c-2.877-8.25-1.2051-22.7617,0.0342-33.5224
				c0.2627-2.2803,0.5068-4.3965,0.684-6.251c0.6534-6.8242,3.2832-13.5313,5.6031-19.4483
				c1.5053-3.8398,2.9272-7.4663,3.6118-10.6157C31.4309,36.1382,31.4611,15.2881,29.8313,2H4.239
				C2.6091,15.2881,2.6389,36.1382,4.3352,43.9409c0.685,3.1494,2.1069,6.7769,3.6123,10.6157
				c2.3198,5.917,4.9492,12.6241,5.603,19.4483c0.1772,1.8545,0.4209,3.9697,0.6836,6.25
				C15.4738,91.0166,17.1452,105.5283,14.2688,113.7783z"/>
		</g>
		<g>
			<path d="M17.0349,68.7275c-2.7715,0-5.2979-1.2373-6.7588-3.3086c-0.1592-0.2255-0.105-0.538,0.1206-0.6962
				c0.2251-0.1612,0.5366-0.1045,0.6968,0.1201c1.2734,1.8066,3.4946,2.8847,5.9414,2.8847c2.4472,0,4.6684-1.0781,5.9419-2.8847
				c0.1596-0.2246,0.4721-0.2813,0.6967-0.1201c0.2256,0.1582,0.2798,0.4707,0.1207,0.6962
				C22.3332,67.4902,19.8068,68.7275,17.0349,68.7275z"/>
		</g>
		<g>
			<path d="M11.3601,119.9609c-0.2593,0-0.5186-0.1005-0.7144-0.3007c-0.562-0.5733-0.8594-1.2432-0.8594-1.9346
				c0-2.25,3.1163-3.9473,7.2486-3.9473c4.1328,0,7.249,1.6973,7.249,3.9473c0,0.6426-0.2578,1.2705-0.7461,1.8144
				c-0.3672,0.4112-1.001,0.4463-1.4121,0.0782c-0.4111-0.3692-0.4458-1.001-0.0772-1.4121
				c0.1563-0.1748,0.2354-0.336,0.2354-0.4805c0-0.7754-2.0938-1.9473-5.249-1.9473c-3.1553,0-5.2486,1.1719-5.2486,1.9473
				c0,0.1992,0.1568,0.4014,0.2881,0.5361c0.3867,0.3946,0.3799,1.0274-0.0146,1.4141
				C11.865,119.8662,11.6125,119.9609,11.3601,119.9609z"/>
		</g>
	</g>
</g>
</svg>
