<?xml version="1.0" encoding="utf-8"?>
<!-- Generator: Adobe Illustrator 21.0.0, SVG Export Plug-In . SVG Version: 6.00 Build 0)  -->
<!DOCTYPE svg PUBLIC "-//W3C//DTD SVG 1.1//EN" "http://www.w3.org/Graphics/SVG/1.1/DTD/svg11.dtd">
<svg version="1.1" id="XMLID_1_" xmlns="http://www.w3.org/2000/svg" xmlns:xlink="http://www.w3.org/1999/xlink" x="0px" y="0px"
	 viewBox="0 0 53.8155 65.9556" enable-background="new 0 0 53.8155 65.9556" xml:space="preserve">
<g id="glass-cocktail">
	<g>
		<g>
			<path d="M28.7852,59.0723h-3.7549c-0.5522,0-1-0.4478-1-1v-29.252c-1.0639-0.4028-2.331-1.4326-2.6196-3.5952
				c-0.0733-0.5479,0.3115-1.0508,0.8589-1.1235c0.5464-0.0679,1.0508,0.311,1.1235,0.8589
				c0.2471,1.8525,1.4663,2.0546,1.7085,2.0761c0.5156,0.0464,0.9287,0.48,0.9287,0.9976v29.0381h1.7549V28.0342
				c0-0.5308,0.4145-0.9693,0.9448-0.9986c0.2261-0.0205,1.4453-0.2226,1.6924-2.0751c0.0732-0.5479,0.5815-0.9268,1.1235-0.8589
				c0.5474,0.0727,0.9322,0.5756,0.8589,1.1235c-0.2885,2.1626-1.5556,3.1924-2.6196,3.5952v29.252
				C29.7852,58.6245,29.3374,59.0723,28.7852,59.0723z"/>
		</g>
		<g>
			<path d="M29.8174,61.7632h-5.8198c-0.5522,0-1-0.4478-1-1v-1.7368c0-1.0777,0.877-1.9541,1.9546-1.9541h3.9111
				c1.0777,0,1.9541,0.8764,1.9541,1.9541v1.7368C30.8174,61.3154,30.3697,61.7632,29.8174,61.7632z M24.9707,59.7632h3.8467
				v-0.7368l-3.8652,0.0459L24.9707,59.7632z"/>
		</g>
		<g>
			<path d="M41.9268,65.9556H11.8887c-0.4482,0-0.8418-0.2984-0.9629-0.73c-0.1211-0.4317,0.0601-0.8911,0.4429-1.1245
				c2.9687-1.8062,11.9907-4.2036,12.373-4.3047c0.0835-0.022,0.1695-0.0332,0.2559-0.0332h5.8198
				c0.0865,0,0.1724,0.0112,0.2554,0.0332c0.3828,0.1011,9.4053,2.4985,12.374,4.3047c0.3828,0.2334,0.564,0.6928,0.4429,1.1245
				C42.7686,65.6572,42.375,65.9556,41.9268,65.9556z M16.8604,63.9556h20.0952c-3.1059-1.0611-6.5747-2.0059-7.2695-2.1924h-5.5572
				C23.4341,61.9502,19.9659,62.8945,16.8604,63.9556z"/>
		</g>
		<g>
			<path d="M26.9078,21.9009c-4.1978,0-10.6333-0.8999-16.1045-3.4253c-4.9307-2.2759-8.335-6.4448-8.4776-6.6211
				c-0.1733-0.2148-0.1396-0.5298,0.0747-0.7031c0.2159-0.1734,0.5303-0.1407,0.7032,0.0742
				c0.0336,0.0415,3.4057,4.167,8.1186,6.3418c4.3872,2.0249,10.544,3.3335,15.6856,3.3335c5.1411,0,11.2983-1.3086,15.6855-3.3335
				c4.7129-2.1748,8.085-6.3003,8.1187-6.3418c0.1728-0.2149,0.4877-0.2476,0.7031-0.0742c0.2143,0.1733,0.248,0.4883,0.0747,0.7031
				c-0.1426,0.1763-3.5469,4.3452-8.4776,6.6211C37.5401,21.001,31.1055,21.9009,26.9078,21.9009z"/>
		</g>
		<g>
			<path fill="none" stroke="#2D3538" stroke-width="2" stroke-linecap="round" stroke-linejoin="round" stroke-miterlimit="10" d="
				M31.4134,25.093"/>
		</g>
		<g>
			<path fill="none" stroke="#2D3538" stroke-width="2" stroke-linecap="round" stroke-linejoin="round" stroke-miterlimit="10" d="
				M22.402,25.093"/>
		</g>
		<g>
			<path d="M26.9078,26.0928C4.6685,26.0928,0,12.4473,0,1c0-0.5522,0.4478-1,1-1h51.8155c0.5522,0,1,0.4478,1,1
				C53.8155,12.4473,49.147,26.0928,26.9078,26.0928z M2.0132,2c0.2749,10.3125,4.9566,22.0928,24.8946,22.0928
				c19.9379,0,24.6196-11.7803,24.8945-22.0928H2.0132z"/>
		</g>
		<g>
			<path d="M28.7852,29.0342h-3.7549c-0.5522,0-1-0.4478-1-1c0-0.5523,0.4478-1,1-1h3.7549c0.5522,0,1,0.4477,1,1
				C29.7852,28.5864,29.3374,29.0342,28.7852,29.0342z"/>
		</g>
	</g>
</g>
</svg>
