<?xml version="1.0" encoding="utf-8"?>
<!-- Generator: Adobe Illustrator 21.0.0, SVG Export Plug-In . SVG Version: 6.00 Build 0)  -->
<!DOCTYPE svg PUBLIC "-//W3C//DTD SVG 1.1//EN" "http://www.w3.org/Graphics/SVG/1.1/DTD/svg11.dtd">
<svg version="1.1" id="XMLID_1_" xmlns="http://www.w3.org/2000/svg" xmlns:xlink="http://www.w3.org/1999/xlink" x="0px" y="0px"
	 viewBox="0 0 68.8758 115.9824" enable-background="new 0 0 68.8758 115.9824" xml:space="preserve">
<g id="glass-pint">
	<g>
		<g>
			<path d="M58.2484,110.4707H10.6273c-0.4238,0-0.8018-0.2676-0.9429-0.667c-0.9277-2.6289-3.1079-28.8789-5.2612-55.54
				C3.8739,47.461,3.4398,42.0889,3.3543,41.4873c-0.1411-0.9863-0.8232-2.7656-1.4829-4.4863
				c-0.8052-2.0996-1.6377-4.2715-1.8266-5.7822c-0.1924-1.5381,0.2671-3.3321,0.7534-5.2325
				c0.4389-1.7138,0.8926-3.4863,0.8926-5.1435V1c0-0.5527,0.4477-1,1-1h63.4946c0.5522,0,1,0.4473,1,1v19.8428
				c0,1.6562,0.4536,3.4287,0.8921,5.1435c0.4863,1.8995,0.9458,3.6944,0.7534,5.2325c-0.189,1.5117-1.0215,3.6836-1.8267,5.7832
				c-0.6596,1.7207-1.3418,3.499-1.4829,4.4853c-0.0854,0.6016-0.5195,5.9737-1.0688,12.7764
				c-2.1533,26.6611-4.3335,52.9111-5.2613,55.54C59.0501,110.2031,58.6723,110.4707,58.2484,110.4707z M11.4115,108.4707h46.0527
				c1.0537-5.5771,3.6919-38.2363,4.9946-54.3681c0.6494-8.0401,0.9927-12.2657,1.083-12.8985
				c0.1729-1.209,0.8638-3.0107,1.5948-4.918c0.7627-1.9882,1.5512-4.0449,1.7099-5.3154c0.145-1.1611-0.2685-2.7773-0.7065-4.4892
				c-0.4473-1.7481-0.9546-3.7305-0.9546-5.6387V2H3.6908v18.8428c0,1.9092-0.5074,3.8906-0.9551,5.6396
				c-0.438,1.711-0.8516,3.3272-0.7066,4.4883c0.1587,1.2705,0.9473,3.3262,1.7095,5.3145
				c0.7315,1.9072,1.4229,3.7099,1.5952,4.9189c0.0904,0.6328,0.4336,4.8584,1.083,12.8985
				C7.7196,70.2344,10.3578,102.8936,11.4115,108.4707z"/>
		</g>
		<g>
			<path d="M58.2484,115.9824H10.6273c-0.5523,0-1-0.4472-1-1v-5.5117c0-0.5527,0.4477-1,1-1h47.6211c0.5522,0,1,0.4473,1,1v5.5117
				C59.2484,115.5352,58.8006,115.9824,58.2484,115.9824z M11.6273,113.9824h45.6211v-3.5117H11.6273V113.9824z"/>
		</g>
		<g>
			<path d="M37.9671,106.2608c-1.768,0-3.0844-0.0274-3.5415-0.0381c-1.8711,0.0449-18.5693,0.375-20.8613-2.1485
				c-2.2461-2.4697-8.6621-53.2158-9.3862-58.9941c-0.0342-0.2744,0.1601-0.5244,0.434-0.5586
				c0.2764-0.041,0.524,0.1602,0.5582,0.4336c2.8271,22.5576,7.5927,56.7383,9.1342,58.4473
				c1.4947,1.6435,13.1353,1.9961,20.1211,1.8203c7.0113,0.1699,18.6514-0.1778,20.1455-1.8203
				c1.542-1.709,6.3072-35.8897,9.1343-58.4473c0.0342-0.2734,0.2832-0.4746,0.5581-0.4336
				c0.2739,0.0342,0.4683,0.2842,0.4341,0.5586c-0.7241,5.7783-7.1397,56.5244-9.3862,58.9941
				C53.5716,105.9883,43.5335,106.2608,37.9671,106.2608z"/>
		</g>
	</g>
</g>
</svg>
