<?xml version="1.0" encoding="utf-8"?>
<!-- Generator: Adobe Illustrator 21.0.0, SVG Export Plug-In . SVG Version: 6.00 Build 0)  -->
<!DOCTYPE svg PUBLIC "-//W3C//DTD SVG 1.1//EN" "http://www.w3.org/Graphics/SVG/1.1/DTD/svg11.dtd">
<svg version="1.1" id="XMLID_1_" xmlns="http://www.w3.org/2000/svg" xmlns:xlink="http://www.w3.org/1999/xlink" x="0px" y="0px"
	 viewBox="0 0 65.2344 195.2073" enable-background="new 0 0 65.2344 195.2073" xml:space="preserve">
<g id="method-shake">
	<g>
		<g>
			<g>
				<path d="M59.4825,119.6578c-2.2783,43.9968-6.6737,63.4035-7.5698,66.9802H15.293c-0.9257-3.6849-5.5773-24.1942-7.7831-71.2725
					c-0.5596,0.097-1.1472,0.0648-1.7114-0.0696c2.4523,52.4564,7.9537,72.213,8.0159,72.4302
					c0.105,0.3657,0.4395,0.6182,0.8201,0.6182h37.9369c0.3807,0,0.7152-0.2524,0.8202-0.6182
					c0.0603-0.211,5.2496-18.8444,7.7952-67.9529C60.6107,119.8537,60.0267,119.8114,59.4825,119.6578z"/>
			</g>
			<g>
				<path d="M52.5713,195.2073H14.6345c-0.4712,0-0.8531-0.3816-0.8531-0.8531v-6.8631c0-0.4716,0.3819-0.8531,0.8531-0.8531
					h37.9368c0.4712,0,0.8531,0.3815,0.8531,0.8531v6.8631C53.4244,194.8257,53.0424,195.2073,52.5713,195.2073z M15.4876,193.5011
					h36.2306v-5.1569H15.4876V193.5011z"/>
			</g>
			<g>
				<path d="M59.9022,119.7637c-1.5435,20.1239-7.8091,61.0646-10.6901,63.0986c-1.9457,1.3737-11.9321,1.8137-15.6031,1.867
					c-3.6836-0.0533-13.6697-0.4933-15.6155-1.867c-2.898-2.0461-9.2179-43.4383-10.7162-63.4378
					c-0.0176-0.235-0.2213-0.4049-0.457-0.3941c-0.235,0.0183-0.411,0.2224-0.3937,0.4574
					c1.2189,16.2698,7.4585,61.5183,11.0745,64.071c2.559,1.807,15.5437,2.0153,16.1079,2.0236
					c0.5515-0.0084,13.5366-0.2166,16.0956-2.0236c3.5922-2.5355,9.7748-47.2197,11.0497-63.7506
					C60.4674,119.8191,60.1813,119.8102,59.9022,119.7637z"/>
			</g>
		</g>
	</g>
	<g>
		<g>
			<g>
				<path d="M17.629,7.4938l45.1135,3.4499c0.3697,0.0283,0.6757,0.2982,0.7504,0.661c0.0498,0.243,3.7017,41.6663,0.2793,108.5581
					c-0.0114,0.2237-0.1124,0.4332-0.2807,0.5814c-0.168,0.1482-0.3888,0.2216-0.612,0.2045L0.7672,116.199
					c-0.2233-0.0171-0.4304-0.1232-0.5738-0.2952c-0.1438-0.1721-0.2118-0.3945-0.1891-0.6174
					C6.7926,48.652,16.7007,8.2656,16.7868,8.0331C16.9159,7.6858,17.2594,7.4655,17.629,7.4938z M61.9766,12.5513L18.1417,9.1992
					c-1.3329,3.9976-10.2318,45.348-16.3982,105.4083l60.4131,4.6199C65.1967,58.8751,62.6873,16.6979,61.9766,12.5513z"/>
			</g>
			<g>
				<path d="M18.2019,0.0025l45.1136,3.4499c0.4574,0.035,0.7999,0.4338,0.7649,0.8916l-0.5729,7.4913
					c-0.035,0.4579-0.4341,0.7999-0.8916,0.7649L17.5023,9.1503c-0.4574-0.035-0.7999-0.4337-0.7649-0.8916l0.5729-7.4913
					C17.3453,0.3096,17.7444-0.0325,18.2019,0.0025z M62.3605,5.0455L18.9035,1.7223l-0.4462,5.8349l43.4571,3.3233L62.3605,5.0455z
					"/>
			</g>
		</g>
	</g>
</g>
</svg>
