<?xml version="1.0" encoding="utf-8"?>
<!-- Generator: Adobe Illustrator 21.0.0, SVG Export Plug-In . SVG Version: 6.00 Build 0)  -->
<!DOCTYPE svg PUBLIC "-//W3C//DTD SVG 1.1//EN" "http://www.w3.org/Graphics/SVG/1.1/DTD/svg11.dtd">
<svg version="1.1" id="XMLID_2_" xmlns="http://www.w3.org/2000/svg" xmlns:xlink="http://www.w3.org/1999/xlink" x="0px" y="0px"
	 viewBox="0 0 105.8967 212" enable-background="new 0 0 105.8967 212" xml:space="preserve">
<g id="method-blend">
	<path fill="none" stroke="#2D3538" stroke-width="2" d="M54.617,211C13.9574,211,1,211,1,211v-8.0426
		c0,0,4.0213,0.4468,6.2553-3.5745s1.3404-8.4894,1.3404-12.5106c0-4.0213,4.7969-6.9373,4.7969-6.9373s0-10.0415,0-14.0627
		c0-4.0213,4.1392-7.5957,4.1392-7.5957l0.4468-11.617l-4.776-0.0237l1.3929-6.036H54.617"/>
	<path fill="none" stroke="#2D3538" stroke-width="2" d="M43.8936,211c40.6596,0,53.617,0,53.617,0v-8.0426
		c0,0-4.0213,0.4468-6.2553-3.5745c-2.234-4.0213-1.3404-8.4894-1.3404-12.5106c0-4.0213-4.7969-6.9373-4.7969-6.9373
		s0-10.0415,0-14.0627c0-4.0213-4.1392-7.5957-4.1392-7.5957l-0.4468-11.617l4.776-0.0237l-1.3929-6.036H43.8936"/>
	<path fill="none" stroke="#2D3538" stroke-width="2" d="M53.2766,136.383H22.2234c0,0-6.2553-47.1383-6.9255-64.3404
		s-0.8756-39.7052-2.4574-46.2447c-1.3163-5.4416-2.0106-8.266-2.0106-8.266l43.7872,0.4468"/>
	<path fill="none" stroke="#2D3538" stroke-width="2" d="M45.6809,136.383H76.734c0,0,6.2553-47.1383,6.9255-64.3404
		s0.8756-39.7052,2.4574-46.2447c1.3163-5.4416,2.0106-8.266,2.0106-8.266l-43.7872,0.4468"/>
	<path fill="none" stroke="#2D3538" stroke-width="2" d="M86.1073,35.8284c0,0,6.4884-1.5412,9.8395-0.2007
		c3.3511,1.3404,8.4894,10.5,8.9362,20.3298s-10.1138,26.661-14.0745,33.9574c-3.8474,7.0877-10.3434,16.3008-10.3434,16.3008"/>
	<path fill="none" stroke="#2D3538" stroke-width="2" d="M84.6049,43.4579c0,0,4.6398-2.4686,7.3206-2.0218
		c2.6809,0.4468,8.9362,8.7128,6.9255,17.6489c-1.0915,4.8512-5.882,16.0824-10.0335,22.8858
		c-3.4957,5.7287-6.5385,7.5379-6.5385,7.5379"/>
	<polygon fill="none" stroke="#2D3538" stroke-width="2" points="14.6277,13.5106 83.6596,13.5106 85.2234,7.2553 40.7663,7.2553 
		11.9468,7.2553 	"/>
	<rect x="39.8723" y="1" fill="none" stroke="#2D3538" stroke-width="2" width="20.5532" height="6.2553"/>
	<path fill="none" stroke="#2D3538" d="M33.1702,27.3617c0,0,1.3404,3.5959,1.5638,7.7181s0.8936,36.0691,1.117,41.8776
		c0.2234,5.8085,2.234,41.5532,2.234,41.5532"/>
	<path fill="none" stroke="#2D3538" d="M18.4255,27.3617c0,0,1.3404,3.5959,1.5638,7.7181
		c0.2234,4.1223,0.8936,36.0691,1.117,41.8776c0.2234,5.8085,2.234,41.5532,2.234,41.5532s0.3071,4.3711,4.4681,8.0426
		c0,0,5.8085,2.9043,10.2766,3.7979"/>
	<path fill="none" stroke="#2D3538" d="M80.9787,27.3617c0,0-1.3404,3.5959-1.5638,7.7181s-0.8936,36.0691-1.117,41.8776
		c-0.2234,5.8085-2.234,41.5532-2.234,41.5532s-0.307,4.3711-4.4681,8.0426c0,0-5.8085,2.9043-10.2766,3.7979"/>
	<path fill="none" stroke="#2D3538" d="M67.5745,27.3617c0,0-1.3404,3.5959-1.5638,7.7181s-0.8936,36.0691-1.117,41.8776
		c-0.2234,5.8085-2.234,41.5532-2.234,41.5532"/>
	<path fill="none" stroke="#2D3538" d="M29.5957,163.6383c0,0,12.9574-2.234,19.6596-2.234s19.6596,2.234,19.6596,2.234v8.266
		c0,0-10.2766,2.0106-18.9894,2.0106s-20.3298-2.0106-20.3298-2.0106V163.6383z"/>
</g>
</svg>
