<?xml version="1.0" encoding="utf-8"?>
<!-- Generator: Adobe Illustrator 21.0.0, SVG Export Plug-In . SVG Version: 6.00 Build 0)  -->
<!DOCTYPE svg PUBLIC "-//W3C//DTD SVG 1.1//EN" "http://www.w3.org/Graphics/SVG/1.1/DTD/svg11.dtd">
<svg version="1.1" id="XMLID_1_" xmlns="http://www.w3.org/2000/svg" xmlns:xlink="http://www.w3.org/1999/xlink" x="0px" y="0px"
	 viewBox="0 0 89.0817 189.0312" enable-background="new 0 0 89.0817 189.0312" xml:space="preserve">
<g id="method-stir">
	<path fill="none" stroke="#000000" stroke-width="2" stroke-linecap="round" stroke-linejoin="round" d="M83.5707,188.0312h-71.625
		c0,0,0-77.6341,0-83.9618C11.9456,97.7418,1,86.0594,1,86.0594s7.6939-4.2953,10.9456-4.2953s71.625,0,71.625,0V188.0312z"/>
	<path fill="none" stroke="#000000" stroke-linecap="round" stroke-linejoin="round" d="M83.1857,106.1315
		c0,0-1.4027,71.1379-4.4264,72.8885c-3.0238,1.7506-30.2808,1.114-30.2808,1.114"/>
	<path fill="none" stroke="#000000" stroke-linecap="round" stroke-linejoin="round" d="M11.7673,106.1315
		c0,0,2.2416,71.1379,5.2654,72.8885s31.1197,1.114,31.1197,1.114"/>
	
		<line fill="none" stroke="#000000" stroke-linecap="round" stroke-linejoin="round" x1="34.0586" y1="116.6459" x2="12.1073" y2="154.3965"/>
	
		<line fill="none" stroke="#000000" stroke-linecap="round" stroke-linejoin="round" x1="12.1073" y1="116.6459" x2="34.0586" y2="154.3965"/>
	<path fill="none" stroke="#000000" stroke-linecap="round" stroke-linejoin="round" d="M12.0302,135.2684
		c3.7075,6.376,7.4151,12.7521,11.1226,19.1281"/>
	
		<line fill="none" stroke="#000000" stroke-linecap="round" stroke-linejoin="round" x1="44.9643" y1="116.6459" x2="23.013" y2="154.3965"/>
	
		<line fill="none" stroke="#000000" stroke-linecap="round" stroke-linejoin="round" x1="55.87" y1="116.6459" x2="33.9188" y2="154.3965"/>
	
		<line fill="none" stroke="#000000" stroke-linecap="round" stroke-linejoin="round" x1="66.7758" y1="116.6459" x2="44.8245" y2="154.3965"/>
	
		<line fill="none" stroke="#000000" stroke-linecap="round" stroke-linejoin="round" x1="77.6815" y1="116.6459" x2="55.7302" y2="154.3965"/>
	<path fill="none" stroke="#000000" stroke-linecap="round" stroke-linejoin="round" d="M82.9831,126.2836
		c-5.721,8.8181-10.7544,18.8849-16.3471,28.1129"/>
	<path fill="none" stroke="#000000" stroke-linecap="round" stroke-linejoin="round" d="M83.54,144.081
		c-1.9994,3.4385-3.9989,6.877-5.9983,10.3155"/>
	<path fill="none" stroke="#000000" stroke-linecap="round" stroke-linejoin="round" d="M23.1529,116.6459
		c-3.7075,6.376-7.4151,12.7521-11.1226,19.1281"/>
	
		<line fill="none" stroke="#000000" stroke-linecap="round" stroke-linejoin="round" x1="23.013" y1="116.6459" x2="44.9643" y2="154.3965"/>
	
		<line fill="none" stroke="#000000" stroke-linecap="round" stroke-linejoin="round" x1="33.9188" y1="116.6459" x2="55.87" y2="154.3965"/>
	
		<line fill="none" stroke="#000000" stroke-linecap="round" stroke-linejoin="round" x1="44.8245" y1="116.6459" x2="66.7758" y2="154.3965"/>
	
		<line fill="none" stroke="#000000" stroke-linecap="round" stroke-linejoin="round" x1="55.7302" y1="116.6459" x2="77.6815" y2="154.3965"/>
	<path fill="none" stroke="#000000" stroke-linecap="round" stroke-linejoin="round" d="M66.636,116.6459
		c5.5927,9.2279,10.6261,19.2948,16.7332,28.7769"/>
	<path fill="none" stroke="#000000" stroke-linecap="round" stroke-linejoin="round" d="M77.5417,116.6459
		c1.8248,3.1383,3.6497,6.2765,5.4745,9.4148"/>
	
		<rect x="58.0124" y="-3.4774" transform="matrix(0.9531 0.3028 -0.3028 0.9531 29.8413 -13.7521)" fill="none" stroke="#000000" stroke-linecap="round" stroke-linejoin="round" width="2.5167" height="185.677"/>
</g>
</svg>
