<?xml version="1.0" encoding="utf-8"?>
<!-- Generator: Adobe Illustrator 26.0.2, SVG Export Plug-In . SVG Version: 6.00 Build 0)  -->
<svg version="1.1" id="Layer_1" xmlns="http://www.w3.org/2000/svg" xmlns:xlink="http://www.w3.org/1999/xlink" x="0px" y="0px"
	 viewBox="0 0 16.2 16.1" style="enable-background:new 0 0 16.2 16.1;" xml:space="preserve">
<style type="text/css">
	.st0{clip-path:url(#SVGID_00000023992572462924737800000006557226664029862047_);fill:#FFFFFF;}
	
		.st1{clip-path:url(#SVGID_00000103245170295613742420000016240035961450844045_);fill:none;stroke:#000000;stroke-width:0.75;stroke-linecap:round;stroke-linejoin:round;}
	
		.st2{clip-path:url(#SVGID_00000073685879625966523010000018014349735341958810_);fill:none;stroke:#000000;stroke-width:0.75;stroke-linecap:round;}
	
		.st3{clip-path:url(#SVGID_00000031198097476753000570000008308547309653987496_);fill:none;stroke:#000000;stroke-width:0.75;stroke-linecap:round;}
	
		.st4{clip-path:url(#SVGID_00000053517465045098864320000002613789997400904851_);fill:none;stroke:#000000;stroke-width:0.75;stroke-linecap:round;}
</style>
<g>
	<g>
		<defs>
			<rect id="SVGID_1_" x="-8.1" y="-8.1" width="32" height="32"/>
		</defs>
		<clipPath id="SVGID_00000153676980632507816790000007053429276645128839_">
			<use xlink:href="#SVGID_1_"  style="overflow:visible;"/>
		</clipPath>
		<path style="clip-path:url(#SVGID_00000153676980632507816790000007053429276645128839_);fill:#FFFFFF;" d="M4.5,8.5
			C4.4,8.1,4.3,7.7,4.1,6.9C3.9,6.3,3.8,6,3.6,5.7C3.4,5.2,3.3,5,3.1,4.5C3,4.2,2.7,3.5,2.6,3.1c-0.1-0.5,0-0.9,0.2-1.2
			c0.3-0.3,1-0.5,1.4-0.4S4.9,2,5.1,2.3c0.3,0.5,0.4,0.6,0.7,1.5c0.4,1,0.6,1.9,0.6,2.2l0.1,0.5c0,0,0-1.1,0-1.2c0-1-0.1-1.8,0-2.9
			c0-0.1,0.1-0.6,0.1-0.7c0.1-0.5,0.3-0.8,0.7-1s0.9-0.2,1.4,0c0.4,0.2,0.6,0.5,0.7,1c0,0.1,0.1,1,0.1,1.1c0,1,0,1.6,0,2.2
			c0,0.2,0,1.6,0,1.5c0.1-0.7,0.1-3.2,0.3-3.9c0.1-0.4,0.4-0.7,0.8-0.9s1.1-0.1,1.4,0.2s0.4,0.7,0.5,1.2c0,0.4,0,0.9,0,1.2
			c0,0.9,0,1.3,0,2.1c0,0,0,0.3,0,0.2c0.1-0.3,0.2-0.5,0.3-0.7c0-0.1,0.2-0.6,0.4-0.9c0.1-0.2,0.2-0.4,0.4-0.7
			C13.8,4,14,3.9,14.3,3.7c0.5-0.2,1.1,0.1,1.3,0.6c0.1,0.2,0,0.7,0,1.1C15.5,6,15.3,6.7,15.2,7c-0.1,0.4-0.3,1.2-0.3,1.6
			c-0.1,0.4-0.2,1.4-0.4,1.8c-0.1,0.3-0.4,1-0.7,1.4c0,0-1.1,1.2-1.2,1.8c-0.1,0.6-0.1,0.6-0.1,1s0.1,0.9,0.1,0.9s-0.8,0.1-1.2,0
			c-0.4-0.1-0.9-0.8-1-1.1c-0.2-0.3-0.5-0.3-0.7,0c-0.2,0.4-0.7,1.1-1.1,1.1c-0.7,0.1-2.1,0-3.1,0c0,0,0.2-1-0.2-1.4
			C5,13.8,4.5,13.3,4.2,13l-0.8-0.9c-0.3-0.4-0.6-1.1-1.2-2C1.9,9.6,1.2,9,0.9,8.5c-0.2-0.4-0.3-1-0.2-1.3c0.2-0.6,0.7-0.9,1.4-0.8
			c0.5,0,0.8,0.2,1.2,0.5c0.2,0.2,0.6,0.5,0.8,0.7c0.2,0.2,0.2,0.3,0.4,0.5C4.5,8.7,4.5,8.8,4.5,8.5"/>
	</g>
	<g>
		<defs>
			<rect id="SVGID_00000131345511759395360960000003394363573740528009_" x="-8.1" y="-8.1" width="32" height="32"/>
		</defs>
		<clipPath id="SVGID_00000076603705005142883600000012545456666652496063_">
			<use xlink:href="#SVGID_00000131345511759395360960000003394363573740528009_"  style="overflow:visible;"/>
		</clipPath>
		
			<path style="clip-path:url(#SVGID_00000076603705005142883600000012545456666652496063_);fill:none;stroke:#000000;stroke-width:0.75;stroke-linecap:round;stroke-linejoin:round;" d="
			M4.5,8.5C4.4,8.1,4.3,7.7,4.1,6.9C3.9,6.3,3.8,6,3.6,5.7C3.4,5.2,3.3,5,3.1,4.5C3,4.2,2.7,3.5,2.6,3.1c-0.1-0.5,0-0.9,0.2-1.2
			c0.3-0.3,1-0.5,1.4-0.4S4.9,2,5.1,2.3c0.3,0.5,0.4,0.6,0.7,1.5c0.4,1,0.6,1.9,0.6,2.2l0.1,0.5c0,0,0-1.1,0-1.2c0-1-0.1-1.8,0-2.9
			c0-0.1,0.1-0.6,0.1-0.7c0.1-0.5,0.3-0.8,0.7-1s0.9-0.2,1.4,0c0.4,0.2,0.6,0.5,0.7,1c0,0.1,0.1,1,0.1,1.1c0,1,0,1.6,0,2.2
			c0,0.2,0,1.6,0,1.5c0.1-0.7,0.1-3.2,0.3-3.9c0.1-0.4,0.4-0.7,0.8-0.9s1.1-0.1,1.4,0.2s0.4,0.7,0.5,1.2c0,0.4,0,0.9,0,1.2
			c0,0.9,0,1.3,0,2.1c0,0,0,0.3,0,0.2c0.1-0.3,0.2-0.5,0.3-0.7c0-0.1,0.2-0.6,0.4-0.9c0.1-0.2,0.2-0.4,0.4-0.7
			C13.8,4,14,3.9,14.3,3.7c0.5-0.2,1.1,0.1,1.3,0.6c0.1,0.2,0,0.7,0,1.1C15.5,6,15.3,6.7,15.2,7c-0.1,0.4-0.3,1.2-0.3,1.6
			c-0.1,0.4-0.2,1.4-0.4,1.8c-0.1,0.3-0.4,1-0.7,1.4c0,0-1.1,1.2-1.2,1.8c-0.1,0.6-0.1,0.6-0.1,1s0.1,0.9,0.1,0.9s-0.8,0.1-1.2,0
			c-0.4-0.1-0.9-0.8-1-1.1c-0.2-0.3-0.5-0.3-0.7,0c-0.2,0.4-0.7,1.1-1.1,1.1c-0.7,0.1-2.1,0-3.1,0c0,0,0.2-1-0.2-1.4
			C5,13.8,4.5,13.3,4.2,13l-0.8-0.9c-0.3-0.4-0.6-1.1-1.2-2C1.9,9.6,1.2,9,0.9,8.5c-0.2-0.4-0.3-1-0.2-1.3c0.2-0.6,0.7-0.9,1.4-0.8
			c0.5,0,0.8,0.2,1.2,0.5c0.2,0.2,0.6,0.5,0.8,0.7c0.2,0.2,0.2,0.3,0.4,0.5C4.5,8.7,4.5,8.8,4.5,8.5"/>
	</g>
	<g>
		<defs>
			<rect id="SVGID_00000004539977391136527750000001705939418854253240_" x="-8.1" y="-8.1" width="32" height="32"/>
		</defs>
		<clipPath id="SVGID_00000052789886130949129790000002670320775273295006_">
			<use xlink:href="#SVGID_00000004539977391136527750000001705939418854253240_"  style="overflow:visible;"/>
		</clipPath>
		
			<line style="clip-path:url(#SVGID_00000052789886130949129790000002670320775273295006_);fill:none;stroke:#000000;stroke-width:0.75;stroke-linecap:round;" x1="11.5" y1="12.6" x2="11.5" y2="9.2"/>
	</g>
	<g>
		<defs>
			<rect id="SVGID_00000088812305221541544550000003731541851012790180_" x="-8.1" y="-8.1" width="32" height="32"/>
		</defs>
		<clipPath id="SVGID_00000063635640548576913640000013475702649869005230_">
			<use xlink:href="#SVGID_00000088812305221541544550000003731541851012790180_"  style="overflow:visible;"/>
		</clipPath>
		
			<line style="clip-path:url(#SVGID_00000063635640548576913640000013475702649869005230_);fill:none;stroke:#000000;stroke-width:0.75;stroke-linecap:round;" x1="9.5" y1="12.6" x2="9.4" y2="9.2"/>
	</g>
	<g>
		<defs>
			<rect id="SVGID_00000122713720299303840020000006484591777000126357_" x="-8.1" y="-8.1" width="32" height="32"/>
		</defs>
		<clipPath id="SVGID_00000062892272792701721680000017001457881618396088_">
			<use xlink:href="#SVGID_00000122713720299303840020000006484591777000126357_"  style="overflow:visible;"/>
		</clipPath>
		
			<line style="clip-path:url(#SVGID_00000062892272792701721680000017001457881618396088_);fill:none;stroke:#000000;stroke-width:0.75;stroke-linecap:round;" x1="7.5" y1="9.2" x2="7.5" y2="12.6"/>
	</g>
</g>
</svg>
