<?xml version="1.0" encoding="utf-8"?>
<!-- Generator: Adobe Illustrator 26.0.2, SVG Export Plug-In . SVG Version: 6.00 Build 0)  -->
<svg version="1.1" id="Layer_1" xmlns="http://www.w3.org/2000/svg" xmlns:xlink="http://www.w3.org/1999/xlink" x="0px" y="0px"
	 viewBox="0 0 15.7 16.7" style="enable-background:new 0 0 15.7 16.7;" xml:space="preserve">
<style type="text/css">
	.st0{clip-path:url(#SVGID_00000166641182200670161650000003174329187896907675_);fill:#FFFFFF;}
	
		.st1{clip-path:url(#SVGID_00000176764444961548871320000011196895112209697430_);fill:none;stroke:#000000;stroke-width:0.75;stroke-linecap:round;stroke-linejoin:round;}
	
		.st2{clip-path:url(#SVGID_00000132079224469723358830000016596111872109055130_);fill:none;stroke:#000000;stroke-width:0.75;stroke-linecap:round;}
	
		.st3{clip-path:url(#SVGID_00000133508488895040046230000003342805572923865772_);fill:none;stroke:#000000;stroke-width:0.75;stroke-linecap:round;}
	
		.st4{clip-path:url(#SVGID_00000148622096233204009110000006361546450567559561_);fill:none;stroke:#000000;stroke-width:0.75;stroke-linecap:round;}
</style>
<g>
	<g>
		<defs>
			<rect id="SVGID_1_" x="-8" y="-7.6" width="32" height="32"/>
		</defs>
		<clipPath id="SVGID_00000055672825897710951950000013444072481014838459_">
			<use xlink:href="#SVGID_1_"  style="overflow:visible;"/>
		</clipPath>
		<path style="clip-path:url(#SVGID_00000055672825897710951950000013444072481014838459_);fill:#FFFFFF;" d="M3.3,12.8
			c-0.3-0.4-0.6-1.1-1.2-2c-0.3-0.5-1.2-1.5-1.5-1.9c-0.2-0.4-0.2-0.6-0.1-1c0.1-0.6,0.7-1.1,1.4-1.1c0.5,0,1,0.4,1.4,0.7
			C3.5,7.7,3.8,8.1,4,8.3c0.2,0.2,0.2,0.3,0.4,0.5c0.2,0.3,0.3,0.5,0.2,0.1C4.5,8.4,4.4,7.6,4.2,6.8C4.1,6.2,4,6.1,3.9,5.7
			C3.8,5.2,3.7,4.9,3.6,4.4C3.5,4.1,3.4,3.3,3.3,2.9C3.2,2.4,3.2,1.5,3.6,1.1c0.3-0.3,0.9-0.4,1.3-0.2c0.5,0.3,0.8,1,0.9,1.3
			c0.2,0.5,0.4,1.2,0.5,2c0.2,1,0.5,2.5,0.5,2.8c0-0.4-0.1-1.1,0-1.5c0.1-0.3,0.3-0.7,0.7-0.8c0.3-0.1,0.6-0.1,0.9-0.1
			C8.7,4.7,9,4.9,9.2,5.1C9.6,5.7,9.6,7,9.6,6.9c0.1-0.4,0.1-1.2,0.3-1.6c0.1-0.2,0.5-0.4,0.7-0.5c0.3-0.1,0.7-0.1,1,0
			c0.2,0,0.6,0.3,0.7,0.5c0.2,0.3,0.3,1.3,0.4,1.7c0,0.1,0.1-0.4,0.3-0.7c0.4-0.6,1.8-0.8,1.9,0.6c0,0.7,0,0.6,0,1.1
			c0,0.5,0,0.8,0,1.2s-0.1,1.3-0.2,1.7c-0.1,0.3-0.4,1-0.7,1.4c0,0-1.1,1.2-1.2,1.8c-0.1,0.6-0.1,0.6-0.1,1s0.1,0.9,0.1,0.9
			s-0.8,0.1-1.2,0c-0.4-0.1-0.9-0.8-1-1.1c-0.2-0.3-0.5-0.3-0.7,0C9.7,15.3,9.2,16,8.8,16c-0.7,0.1-2.1,0-3.1,0c0,0,0.2-1-0.2-1.4
			c-0.3-0.3-0.8-0.8-1.1-1.1L3.3,12.8z"/>
	</g>
	<g>
		<defs>
			<rect id="SVGID_00000047764622420120477410000008184468287253958803_" x="-8" y="-7.6" width="32" height="32"/>
		</defs>
		<clipPath id="SVGID_00000052789555196631923720000004686258020278190737_">
			<use xlink:href="#SVGID_00000047764622420120477410000008184468287253958803_"  style="overflow:visible;"/>
		</clipPath>
		
			<path style="clip-path:url(#SVGID_00000052789555196631923720000004686258020278190737_);fill:none;stroke:#000000;stroke-width:0.75;stroke-linecap:round;stroke-linejoin:round;" d="
			M3.3,12.8c-0.3-0.4-0.6-1.1-1.2-2c-0.3-0.5-1.2-1.5-1.5-1.9c-0.2-0.4-0.2-0.6-0.1-1c0.1-0.6,0.7-1.1,1.4-1.1c0.5,0,1,0.4,1.4,0.7
			C3.5,7.7,3.8,8.1,4,8.3c0.2,0.2,0.2,0.3,0.4,0.5c0.2,0.3,0.3,0.5,0.2,0.1C4.5,8.4,4.4,7.6,4.2,6.8C4.1,6.2,4,6.1,3.9,5.7
			C3.8,5.2,3.7,4.9,3.6,4.4C3.5,4.1,3.4,3.3,3.3,2.9C3.2,2.4,3.2,1.5,3.6,1.1c0.3-0.3,0.9-0.4,1.3-0.2c0.5,0.3,0.8,1,0.9,1.3
			c0.2,0.5,0.4,1.2,0.5,2c0.2,1,0.5,2.5,0.5,2.8c0-0.4-0.1-1.1,0-1.5c0.1-0.3,0.3-0.7,0.7-0.8c0.3-0.1,0.6-0.1,0.9-0.1
			C8.7,4.7,9,4.9,9.2,5.1C9.6,5.7,9.6,7,9.6,6.9c0.1-0.4,0.1-1.2,0.3-1.6c0.1-0.2,0.5-0.4,0.7-0.5c0.3-0.1,0.7-0.1,1,0
			c0.2,0,0.6,0.3,0.7,0.5c0.2,0.3,0.3,1.3,0.4,1.7c0,0.1,0.1-0.4,0.3-0.7c0.4-0.6,1.8-0.8,1.9,0.6c0,0.7,0,0.6,0,1.1
			c0,0.5,0,0.8,0,1.2s-0.1,1.3-0.2,1.7c-0.1,0.3-0.4,1-0.7,1.4c0,0-1.1,1.2-1.2,1.8c-0.1,0.6-0.1,0.6-0.1,1s0.1,0.9,0.1,0.9
			s-0.8,0.1-1.2,0c-0.4-0.1-0.9-0.8-1-1.1c-0.2-0.3-0.5-0.3-0.7,0C9.7,15.3,9.2,16,8.8,16c-0.7,0.1-2.1,0-3.1,0c0,0,0.2-1-0.2-1.4
			c-0.3-0.3-0.8-0.8-1.1-1.1L3.3,12.8z"/>
	</g>
	<g>
		<defs>
			<rect id="SVGID_00000136369456116407493260000007250651526870157462_" x="-8" y="-7.6" width="32" height="32"/>
		</defs>
		<clipPath id="SVGID_00000034065839630427914240000017280256249202202246_">
			<use xlink:href="#SVGID_00000136369456116407493260000007250651526870157462_"  style="overflow:visible;"/>
		</clipPath>
		
			<line style="clip-path:url(#SVGID_00000034065839630427914240000017280256249202202246_);fill:none;stroke:#000000;stroke-width:0.75;stroke-linecap:round;" x1="11.6" y1="13.1" x2="11.6" y2="9.7"/>
	</g>
	<g>
		<defs>
			<rect id="SVGID_00000117678621880065215330000014377934512577158826_" x="-8" y="-7.6" width="32" height="32"/>
		</defs>
		<clipPath id="SVGID_00000134231236610898741410000008103339165328811399_">
			<use xlink:href="#SVGID_00000117678621880065215330000014377934512577158826_"  style="overflow:visible;"/>
		</clipPath>
		
			<line style="clip-path:url(#SVGID_00000134231236610898741410000008103339165328811399_);fill:none;stroke:#000000;stroke-width:0.75;stroke-linecap:round;" x1="9.6" y1="13.1" x2="9.5" y2="9.7"/>
	</g>
	<g>
		<defs>
			<rect id="SVGID_00000036239818122703443110000004026993044675275153_" x="-8" y="-7.6" width="32" height="32"/>
		</defs>
		<clipPath id="SVGID_00000173129118693119905580000010705462072545635230_">
			<use xlink:href="#SVGID_00000036239818122703443110000004026993044675275153_"  style="overflow:visible;"/>
		</clipPath>
		
			<line style="clip-path:url(#SVGID_00000173129118693119905580000010705462072545635230_);fill:none;stroke:#000000;stroke-width:0.75;stroke-linecap:round;" x1="7.6" y1="9.7" x2="7.6" y2="13.1"/>
	</g>
</g>
</svg>
